<svg width="28" height="40" viewBox="0 0 28 40" fill="none" xmlns="http://www.w3.org/2000/svg">
<g clip-path="url(#clip0_8791_1772)">
<path d="M14.3724 37.0021H13.8933L13.5739 36.6183L12.5652 35.3218C11.8255 34.375 11.0859 33.4282 10.3714 32.4558C7.9842 29.2486 6.0257 26.3059 4.38662 23.4485C3.17622 21.3502 2.31885 19.5845 1.68843 17.9042C1.26815 16.7953 0.999176 15.7888 0.847876 14.8335C0.747009 14.2279 0.721793 13.5626 0.772226 12.7778C0.873093 11.1657 1.21772 9.65596 1.7977 8.29974C3.6049 4.11167 6.72336 1.3907 11.0859 0.22213C12.3635 -0.119058 13.7504 -0.247003 15.2046 -0.144647C21.1473 0.239189 26.1066 4.43579 27.5355 10.2872C27.8549 11.6007 27.981 12.8972 27.9138 14.1255C27.8634 14.9529 27.6952 15.7888 27.3674 16.855C26.9135 18.3051 26.2663 19.8148 25.3333 21.606C24.0052 24.1479 22.3493 26.8092 20.1386 29.9737C18.55 32.234 16.8941 34.4432 15.1962 36.533L14.902 36.9936L14.364 37.0107L14.3724 37.0021ZM14.2547 1.80865C13.3133 1.80865 12.4307 1.91954 11.5902 2.14984C7.78246 3.16487 5.17674 5.4423 3.6049 9.093C3.11738 10.236 2.82318 11.5154 2.73913 12.8972C2.6971 13.537 2.71391 14.0573 2.78956 14.5349C2.91564 15.3623 3.151 16.2068 3.52084 17.2047C4.11764 18.8083 4.90776 20.4204 6.07614 22.459C7.67319 25.2397 9.58966 28.1227 11.9348 31.2617C12.6493 32.217 13.3722 33.1552 14.1034 34.0935L14.3556 34.4262C15.7846 32.6264 17.1883 30.7413 18.5332 28.8222C20.7018 25.7344 22.3073 23.1414 23.5933 20.6763C24.4675 19.0045 25.0727 17.5971 25.4846 16.2579C25.762 15.3623 25.9049 14.6629 25.9469 14.0146C26.0057 12.9655 25.8965 11.9078 25.6191 10.7733C24.4003 5.76642 20.1555 2.17543 15.0701 1.8513C14.7843 1.83424 14.5153 1.82571 14.2379 1.82571L14.2547 1.80865ZM14.3556 18.2454C12.8174 18.2454 11.3716 17.6483 10.2957 16.5565C9.21141 15.4647 8.61462 14.0061 8.61462 12.4452C8.61462 10.8842 9.21141 9.44272 10.2957 8.35092C11.38 7.25912 12.809 6.66204 14.3388 6.66204C17.4825 6.66204 20.0378 9.27212 20.0378 12.4793C20.0378 15.6864 17.4909 18.2539 14.3556 18.2539V18.2454ZM14.3388 8.64093C13.3301 8.64093 12.3887 9.03329 11.6826 9.74979C10.9766 10.4663 10.5815 11.4216 10.5815 12.4366C10.5815 13.4602 10.9682 14.4241 11.6826 15.1405C12.3887 15.857 13.3385 16.2494 14.3556 16.2494C16.4066 16.2494 18.0793 14.552 18.0793 12.4622C18.0793 10.3725 16.4066 8.64093 14.3388 8.64093Z" fill="#D71D3A"/>
</g>
<defs>
<clipPath id="clip0_8791_1772">
<rect width="27.192" height="39.0919" fill="white" transform="translate(0.747009 0.0358887)"/>
</clipPath>
</defs>
</svg>
