<svg width="76" height="76" viewBox="0 0 76 76" fill="none" xmlns="http://www.w3.org/2000/svg">
<path d="M75.3891 37.7518C75.3891 42.2047 74.4306 46.3352 72.6268 50.4046L70.0038 56.304C69.2631 57.9771 68.4876 59.7025 67.1543 60.9573C66.3875 61.6806 65.4638 62.2296 64.6621 62.9267C63.6687 63.7894 62.8932 64.8699 62.0043 65.8285C58.9544 69.1398 54.7455 70.9872 50.5279 72.3205C48.637 72.9217 46.8941 73.6102 45.0816 74.316C42.9903 75.1351 40.2628 75.0828 38.0407 75.0828C32.7948 75.0828 27.8278 73.5491 22.9305 71.7715C15.3754 69.0266 8.6046 62.4039 5.36297 55.0754L3.21931 50.2303C2.72261 49.1062 2.22591 47.9734 1.81635 46.8144C0.029968 41.708 0.0648241 36.0874 1.27608 30.8154C3.1496 22.6852 7.21035 15.104 13.5193 9.60542C20.2291 3.75829 28.9258 1.01336 37.7618 0.717087C39.9578 0.647374 42.1799 0.743229 44.2799 1.38807C45.9007 1.88477 47.4083 2.70389 48.9768 3.36616C51.7915 4.55998 54.8152 5.26582 57.5166 6.70364C59.3988 7.70576 61.0806 9.04772 62.6927 10.4507C66.3875 13.6575 70.3088 16.8991 71.8163 21.6134C73.5592 27.0771 75.3804 31.8873 75.3804 37.7431L75.3891 37.7518Z" fill="#D81D3B"/>
<path d="M22.6247 57.0271C22.6247 57.0271 22.5637 57.0446 22.5375 57.0533C22.1977 57.1056 22.0495 56.8703 21.9275 56.6524L20.664 54.3606C20.5943 54.2386 20.5246 54.1079 20.5768 53.9075C20.6117 53.7507 20.7076 53.5677 20.8208 53.3847C21.7271 51.8771 23.5571 50.1605 24.8903 48.8882C26.4066 47.4417 27.9664 46.0649 29.4826 44.627L39.1029 35.5383C41.2814 33.4818 43.4687 31.2858 45.6908 29.3252C46.8584 28.2969 48.0261 27.2774 49.1938 26.2578C49.5859 25.918 52.4267 23.6349 52.5139 23.356C52.5923 23.0859 54.7272 21.5086 55.0584 21.2124C55.6858 21.7526 55.9646 22.6676 55.8513 23.8266C55.6771 25.6478 55.4418 25.735 53.4027 27.8002C51.8167 29.4123 50.2482 31.0418 48.671 32.6626C46.3007 35.0851 43.6778 37.3769 41.2204 39.6949C39.0332 41.7601 36.9941 43.9909 34.6936 45.8644C33.9878 46.4396 33.2645 46.9798 32.6022 47.6247C31.9051 48.3044 31.2864 49.0625 30.6067 49.7683C28.7768 51.6767 26.5373 53.3847 24.6115 55.1623C24.1148 55.6242 23.1562 56.8441 22.6247 57.0359V57.0271Z" fill="#F2E8C4"/>
<path d="M21.3074 24.9772C21.3074 24.9772 21.2813 24.9162 21.2639 24.8814C21.1419 24.4979 21.29 24.2714 21.4382 24.071L22.9805 22.0319C23.059 21.9273 23.1548 21.814 23.3291 21.814C23.4598 21.814 23.6341 21.8837 23.8084 21.9709C25.2549 22.6593 27.0761 24.3585 28.4355 25.6133C29.9692 27.025 31.468 28.4977 33.0017 29.9181L42.6917 38.8936C44.8877 40.9239 47.1969 42.9369 49.3231 45.037C50.4385 46.1437 51.5452 47.2591 52.6606 48.3657C53.0353 48.7404 55.5711 51.4941 55.8238 51.5202C56.0678 51.5464 57.8542 53.6465 58.1766 53.9602C57.889 54.8316 57.2181 55.3806 56.2595 55.5287C54.7433 55.7727 54.6213 55.5287 52.4515 53.6552C50.7609 52.1999 49.0617 50.7795 47.3712 49.333C44.8354 47.1632 42.3345 44.671 39.8684 42.3879C37.6637 40.3488 35.3632 38.5276 33.2893 36.2968C32.6531 35.6171 32.0344 34.9112 31.3547 34.2925C30.6402 33.639 29.8734 33.1074 29.1414 32.4975C27.1459 30.8331 25.2288 28.6371 23.3204 26.842C22.8324 26.3802 21.6037 25.5611 21.3162 24.9946L21.3074 24.9772Z" fill="#F2E8C4"/>
</svg>
