<svg width="481" height="62" viewBox="0 0 481 62" fill="none" xmlns="http://www.w3.org/2000/svg">
<path d="M16.0402 36.4592L22.7366 47.4077L14.2803 61.4498L0.5625 61.4622L16.0402 36.4592ZM16.3713 24.4754L2.12621 1.54932L15.844 1.53692L22.9635 13.4277L16.3713 24.4754ZM54.8387 61.4188L41.1209 61.4312L22.1295 30.2038L39.4652 1.51832L53.183 1.50592L35.4241 30.2782L54.8387 61.4188Z" fill="#1A1A18"/>
<path d="M73.6967 36.4151L80.3931 47.3636L71.9367 61.4057L58.219 61.4181L73.6906 36.4089L73.6967 36.4151ZM74.0278 24.4313L59.7827 1.49896L73.5005 1.48656L80.62 13.3774L74.0278 24.4251V24.4313ZM112.495 61.3747L98.7774 61.3871L79.786 30.1597L97.1217 1.46797L110.84 1.45557L93.0806 30.2279L112.495 61.3685V61.3747Z" fill="#1A1A18"/>
<path d="M182.473 21.0837C182.479 32.0384 175.12 40.7736 161.918 40.786H151.248L151.266 61.3377L140.007 61.3501L139.983 29.9367L161.66 29.9181C167.332 29.9181 170.883 26.2294 170.883 21.0961C170.883 15.9628 167.32 12.3671 161.648 12.3733L139.97 12.3919V1.43097L161.887 1.41237C175.096 1.39997 182.467 10.129 182.479 21.0837H182.473Z" fill="#1A1A18"/>
<path d="M209.16 40.7491H200.949L200.968 61.3008L189.709 61.3132L189.684 29.8998L211.362 29.8813C216.948 29.8813 220.505 26.1925 220.499 21.0592C220.499 15.926 216.936 12.3302 211.349 12.3364L189.672 12.355V1.3941L211.589 1.3755C224.797 1.3631 232.168 10.0921 232.181 21.0468C232.187 29.0939 228.299 35.9445 220.934 39.0319L233.652 61.276L220.953 61.2884L209.166 40.7553L209.16 40.7491Z" fill="#1A1A18"/>
<path d="M294.496 31.3442C294.508 48.5481 282.838 61.9144 265.822 61.9268C248.805 61.9392 237.025 48.5977 237.012 31.3938C237 14.19 248.756 0.829826 265.773 0.811227C282.789 0.798828 294.484 14.1404 294.502 31.3442H294.496ZM282.979 31.3566C282.973 20.4019 276.528 12.1875 265.779 12.1999C254.943 12.2061 248.516 20.4329 248.523 31.3876C248.529 42.3423 254.974 50.5568 265.809 50.5444C276.559 50.5382 282.992 42.3113 282.979 31.3566ZM271.463 31.369C271.463 34.537 268.931 37.1905 265.797 37.1967C262.578 37.1967 260.039 34.5494 260.033 31.3814C260.033 28.2134 262.565 25.56 265.785 25.5538C268.918 25.5538 271.457 28.201 271.463 31.369Z" fill="#1A1A18"/>
<path d="M325.476 19.3359L325.495 40.7369C325.507 55.8887 318.571 61.8837 308.239 61.8961C301.463 61.8961 296.465 58.7405 293.668 55.4858L300.267 47.4325C301.285 48.629 303.658 50.9415 307.552 50.7617C311.446 50.5881 314.236 47.5875 314.236 42.0264L314.218 19.3421L325.476 19.3297V19.3359ZM325.464 1.27649V10.9479L314.211 10.9603V1.28889L325.464 1.27649Z" fill="#1A1A18"/>
<path d="M373.642 12.1934L334.782 12.2244V1.26971L373.635 1.23871V12.1934H373.642ZM371.048 36.6756L334.812 36.7066V25.8325L371.042 25.8015V36.6756H371.048ZM374.2 50.2837V61.1578L334.837 61.1888V50.3147L374.2 50.2837Z" fill="#1A1A18"/>
<path d="M422.259 42.6212L432.506 47.7483C427.686 56.3099 418.886 61.7966 407.965 61.809C390.948 61.8214 379.254 48.4799 379.235 31.276C379.217 14.0721 390.899 0.705764 407.916 0.693365C418.837 0.687165 427.649 6.242 432.481 14.7107L422.241 19.8563C419.358 15.064 414.447 12.0758 407.928 12.0758C397.178 12.082 390.746 20.3089 390.758 31.2636C390.764 42.2183 397.209 50.4327 407.959 50.4203C414.477 50.4203 419.383 47.4135 422.259 42.6212ZM408.192 25.5971C411.411 25.5971 413.95 28.1576 413.956 31.3256C413.956 34.5804 411.423 37.147 408.204 37.1532C404.985 37.1594 402.446 34.5928 402.44 31.338C402.434 28.0832 405.058 25.6033 408.192 25.5971Z" fill="#1A1A18"/>
<path d="M480.646 1.146V12.1007L437.475 12.1379V1.18319L480.646 1.146ZM453.486 21.0281L464.745 21.0157L464.775 61.0775L453.517 61.0899L453.486 21.0281Z" fill="#1A1A18"/>
</svg>
