<svg width="87" height="86" viewBox="0 0 87 86" fill="none" xmlns="http://www.w3.org/2000/svg">
<g clip-path="url(#clip0_8791_7285)">
<path d="M86.0392 43.0437C86.0392 48.1537 84.9392 52.8937 82.8692 57.5637L79.8592 64.3337C79.0092 66.2537 78.1192 68.2337 76.5892 69.6737C75.7092 70.5037 74.6492 71.1337 73.7292 71.9337C72.5892 72.9237 71.6992 74.1637 70.6792 75.2637C67.1792 79.0637 62.3492 81.1837 57.5092 82.7137C55.3392 83.4037 53.3392 84.1937 51.2592 85.0037C48.8592 85.9437 45.7292 85.8837 43.1792 85.8837C37.1592 85.8837 31.4592 84.1237 25.8392 82.0837C17.1692 78.9337 9.39922 71.3337 5.67922 62.9237L3.21922 57.3637C2.64922 56.0737 2.07922 54.7737 1.60922 53.4437C-0.440776 47.5837 -0.400776 41.1337 0.989224 35.0837C3.13922 25.7537 7.79922 17.0537 15.0392 10.7437C22.7392 4.03367 32.7192 0.88367 42.8592 0.54367C45.3792 0.46367 47.9292 0.57367 50.3392 1.31367C52.1992 1.88367 53.9292 2.82367 55.7292 3.58367C58.9592 4.95367 62.4292 5.76367 65.5292 7.41367C67.6892 8.56367 69.6192 10.1037 71.4692 11.7137C75.7092 15.3937 80.2092 19.1137 81.9392 24.5237C83.9392 30.7937 86.0292 36.3137 86.0292 43.0337L86.0392 43.0437Z" fill="#D81D3B"/>
<path d="M11.4527 33.1037C11.4527 33.1037 11.3727 33.0837 11.3327 33.0637C10.8927 32.8937 10.8927 32.6337 10.9127 32.4037L11.1127 30.0037C11.1227 29.8737 11.1427 29.7437 11.3427 29.6237C11.5027 29.5337 11.7527 29.4637 12.0127 29.4037C14.2027 28.8937 17.6127 28.8037 20.1427 28.7237C23.0027 28.6337 25.8527 28.6137 28.7127 28.5337L46.7727 28.0137C50.8627 27.8937 55.0727 27.6837 59.1327 27.6637C61.2627 27.6637 63.4027 27.6637 65.5327 27.6537C66.2427 27.6537 71.2827 27.7837 71.6027 27.6437C71.9027 27.5037 75.5727 27.7037 76.1927 27.6937C76.5327 28.4637 76.1927 29.2837 75.2027 30.0337C73.6427 31.2137 73.3127 31.1337 69.3727 31.3437C66.3127 31.5037 63.2527 31.7037 60.1927 31.8737C55.6127 32.1237 50.8127 32.1437 46.2127 32.2737C42.1027 32.3937 38.0527 32.7137 33.9527 32.6237C32.7027 32.5937 31.4427 32.5337 30.1727 32.5837C28.8427 32.6337 27.5627 32.7937 26.2427 32.8737C22.6727 33.1037 18.7727 32.9237 15.1827 33.0037C14.2627 33.0237 12.2227 33.3037 11.4527 33.1137V33.1037Z" fill="#F2E8C4"/>
<path d="M12.7196 45.6239C12.7196 45.6239 12.6396 45.6039 12.6096 45.5839C12.1896 45.4039 12.1896 45.1539 12.2096 44.9239L12.3996 42.5239C12.3996 42.3939 12.4196 42.2639 12.6096 42.1439C12.7596 42.0539 12.9896 41.9839 13.2396 41.9239C15.2896 41.4139 18.4796 41.3339 20.8396 41.2639C23.5096 41.1839 26.1896 41.1639 28.8596 41.0939L45.7596 40.6139C49.5896 40.5039 53.5196 40.3039 57.3297 40.2939C59.3297 40.2939 61.3196 40.2939 63.3196 40.2939C63.9896 40.2939 68.7096 40.4339 68.9996 40.2939C69.2796 40.1539 72.7197 40.3539 73.2896 40.3539C73.6096 41.1239 73.2896 41.9439 72.3596 42.6939C70.8997 43.8739 70.5897 43.7939 66.9097 43.9939C64.0397 44.1539 61.1896 44.3339 58.3196 44.5039C54.0296 44.7539 49.5396 44.7539 45.2296 44.8739C41.3796 44.9839 37.5996 45.3039 33.7496 45.2039C32.5796 45.1739 31.3996 45.1139 30.2196 45.1539C28.9796 45.2039 27.7696 45.3539 26.5396 45.4339C23.1896 45.6539 19.5396 45.4739 16.1896 45.5439C15.3296 45.5639 13.4196 45.8339 12.6996 45.6439L12.7196 45.6239Z" fill="#F2E8C4"/>
<path d="M18.3801 60.733C18.3801 60.733 18.3101 60.703 18.2901 60.693C17.9401 60.503 17.9401 60.223 17.9601 59.963L18.1001 57.333C18.1001 57.193 18.1201 57.043 18.2801 56.923C18.4001 56.823 18.6001 56.753 18.8001 56.693C20.5001 56.153 23.1501 56.083 25.1101 56.023C27.3301 55.953 29.5501 55.953 31.7701 55.893L45.8101 55.493C48.9901 55.403 52.2601 55.213 55.4201 55.223C57.0801 55.223 58.7401 55.253 60.4001 55.263C60.9501 55.263 64.8701 55.463 65.1101 55.303C65.3401 55.153 68.2001 55.403 68.6801 55.403C68.9501 56.253 68.6801 57.143 67.9301 57.953C66.7301 59.233 66.4701 59.143 63.4101 59.333C61.0301 59.483 58.6601 59.663 56.2801 59.823C52.7201 60.063 48.9901 60.033 45.4101 60.133C42.2201 60.223 39.0701 60.543 35.8801 60.403C34.9001 60.363 33.9301 60.283 32.9401 60.323C31.9101 60.363 30.9101 60.523 29.8901 60.603C27.1101 60.813 24.0801 60.593 21.3001 60.643C20.5801 60.653 19.0001 60.943 18.4001 60.723L18.3801 60.733Z" fill="#F2E8C4"/>
</g>
<defs>
<clipPath id="clip0_8791_7285">
<rect width="86.04" height="85.36" fill="white" transform="translate(0 0.523438)"/>
</clipPath>
</defs>
</svg>
