<svg width="55" height="55" viewBox="0 0 55 55" fill="none" xmlns="http://www.w3.org/2000/svg">
<path d="M27.5803 0.732913C42.464 0.732911 54.5803 12.8409 54.5803 27.7329C54.5803 42.6249 42.464 54.7329 27.5803 54.7329C12.6967 54.7329 0.580321 42.6166 0.58032 27.7329C0.580319 12.8493 12.6967 0.732914 27.5803 0.732913ZM27.5803 52.2398C41.0928 52.2398 52.0872 41.2454 52.0872 27.7329C52.0872 14.2204 41.0928 3.22599 27.5803 3.22599C14.0679 3.22599 3.0734 14.2204 3.0734 27.7329C3.0734 41.2454 14.0679 52.2398 27.5803 52.2398Z" fill="black"/>
<path d="M42.7709 27.1346C41.7404 26.6276 40.5853 26.6276 39.4634 26.5528C38.3415 26.478 37.2695 26.4116 36.1642 26.37C34.0368 26.2869 31.9094 26.1872 29.7737 26.0708C27.6379 25.9545 25.5188 25.7966 23.3914 25.647C22.2944 25.5722 21.1975 25.4974 20.1005 25.406C19.552 25.3645 19.0036 25.3229 18.4551 25.2731C17.7737 25.2149 17.6822 25.1484 17.1504 25.5805C16.7183 25.9296 16.8429 28.0321 17.2169 28.3977C17.9814 29.129 19.1615 28.9711 20.1836 29.0542C21.2806 29.1456 22.3775 29.2287 23.4745 29.3035C25.6019 29.4531 27.721 29.5528 29.8484 29.6359C31.9759 29.719 34.1033 29.7855 36.2307 29.8271C37.3277 29.852 38.4246 29.8271 39.5216 29.8021C40.6185 29.7772 41.782 29.8021 42.8041 29.3035C43.1947 29.1124 43.1199 27.3091 42.7543 27.1262L42.7709 27.1346Z" fill="#D71D3A"/>
<path d="M25.6404 37.3315C25.6487 35.8689 25.4244 34.5226 24.7014 33.2428C24.0449 32.0877 23.031 31.157 22.0338 30.2927C19.9811 28.506 17.6127 27.1348 15.0781 26.1625L15.1695 29.9021C16.2914 30.1847 17.2637 29.6861 18.1861 29.0794C19.2665 28.3647 20.3136 27.5919 21.3773 26.8523L24.6349 24.5669C25.7235 23.8024 26.9202 23.0877 27.8842 22.1653C28.2914 21.7747 28.1584 20.5199 28.1335 20.0379C28.1252 19.8883 27.959 18.2428 27.6764 18.3758C26.5546 18.9077 25.5739 19.7886 24.5767 20.5199L21.4604 22.8052C20.4216 23.5697 19.3911 24.3343 18.344 25.0905C17.3717 25.7969 16.308 26.4534 15.0698 26.1625C14.7374 26.0877 14.3884 29.6196 15.1612 29.9021C17.2554 30.6667 19.2083 31.7138 21.0199 33.0185C21.8426 33.6168 22.6404 34.265 23.3717 34.9714C23.9368 35.5199 25.0504 36.5005 25.1252 37.3481C25.1335 37.4645 25.1751 38.2373 25.3994 38.2373C25.6238 38.2373 25.6321 37.4561 25.6321 37.3398L25.6404 37.3315Z" fill="#D71D3A"/>
</svg>
