<svg width="55" height="55" viewBox="0 0 55 55" fill="none" xmlns="http://www.w3.org/2000/svg">
<path d="M27.6194 54.7329C12.7357 54.7329 0.619385 42.6249 0.619385 27.7329C0.619385 12.8409 12.7357 0.73291 27.6194 0.73291C42.503 0.73291 54.6194 12.8493 54.6194 27.7329C54.6194 42.6166 42.503 54.7329 27.6194 54.7329ZM27.6194 3.22598C14.1069 3.22598 3.11246 14.2204 3.11246 27.7329C3.11246 41.2454 14.1069 52.2398 27.6194 52.2398C41.1319 52.2398 52.1263 41.2454 52.1263 27.7329C52.1263 14.2204 41.1319 3.22598 27.6194 3.22598Z" fill="black"/>
<path d="M12.4288 28.3313C13.4593 28.8382 14.6144 28.8382 15.7363 28.913C16.8582 28.9878 17.9302 29.0543 19.0355 29.0958C21.1629 29.1789 23.2903 29.2786 25.4261 29.395C27.5618 29.5113 29.6809 29.6692 31.8083 29.8188C32.9053 29.8936 34.0022 29.9684 35.0992 30.0598C35.6477 30.1013 36.1961 30.1429 36.7446 30.1928C37.4261 30.2509 37.5175 30.3174 38.0493 29.8853C38.4815 29.5363 38.3568 27.4338 37.9828 27.0681C37.2183 26.3368 36.0382 26.4947 35.0161 26.4116C33.9191 26.3202 32.8222 26.2371 31.7252 26.1623C29.5978 26.0127 27.4787 25.913 25.3513 25.8299C23.2238 25.7468 21.0964 25.6803 18.969 25.6387C17.872 25.6138 16.7751 25.6387 15.6781 25.6637C14.5812 25.6886 13.4177 25.6637 12.3956 26.1623C12.005 26.3534 12.0798 28.1568 12.4454 28.3396L12.4288 28.3313Z" fill="#D71D3A"/>
<path d="M29.5593 18.1343C29.551 19.5969 29.7753 20.9432 30.4983 22.223C31.1548 23.3781 32.1687 24.3088 33.1659 25.1731C35.2186 26.9598 37.587 28.331 40.1216 29.3033L40.0302 25.5637C38.9083 25.2811 37.936 25.7798 37.0136 26.3864C35.9332 27.1011 34.8861 27.8739 33.8224 28.6136L30.5648 30.8989C29.4762 31.6634 28.2795 32.3781 27.3155 33.3005C26.9083 33.6911 27.0413 34.946 27.0662 35.428C27.0745 35.5775 27.2407 37.223 27.5233 37.09C28.6451 36.5582 29.6258 35.6773 30.623 34.946L33.7393 32.6606C34.7781 31.8961 35.8086 31.1316 36.8557 30.3753C37.828 29.669 38.8917 29.0124 40.1299 29.3033C40.4623 29.3781 40.8114 25.8462 40.0385 25.5637C37.9443 24.7992 35.9914 23.7521 34.1798 22.4474C33.3571 21.849 32.5593 21.2008 31.828 20.4944C31.2629 19.946 30.1493 18.9654 30.0745 18.1177C30.0662 18.0014 30.0247 17.2285 29.8003 17.2285C29.5759 17.2285 29.5676 18.0097 29.5676 18.126L29.5593 18.1343Z" fill="#D71D3A"/>
</svg>
