<svg width="102" height="104" viewBox="0 0 102 104" fill="none" xmlns="http://www.w3.org/2000/svg">
<path d="M52.4668 93.772C53.3758 95.1571 54.4487 96.466 55.164 97.9576C56.5796 100.941 54.702 103.939 51.4684 103.939C40.65 103.954 29.8316 103.909 19.0281 103.985C16.9717 104 15.3475 103.604 14.662 101.489C13.9319 99.1904 14.5726 97.2422 16.5098 95.8115C17.0909 95.3854 17.7466 95.0505 19.0579 94.2591C17.9105 93.2393 17.0611 92.2043 15.9733 91.5803C13.0378 89.8909 9.72966 88.7646 7.07721 86.7251C-1.49109 80.1499 -2.35537 68.3694 4.91651 60.3331C9.35712 55.417 14.9451 52.5708 21.308 51.2771C22.6492 51.0031 23.4985 50.6378 24.0052 49.1006C24.9291 46.3457 27.358 45.9652 30.0999 46.2696V16.5597C23.8413 16.4379 21.8594 11.8718 19.9222 6.6513C22.3064 6.6513 24.3926 6.52954 26.449 6.68174C28.3266 6.81872 29.3697 6.31645 29.5783 4.23128C29.6975 2.95278 30.234 1.73516 30.5469 0.563197C30.8598 0.441435 31.0237 0.319673 31.2026 0.319673C33.5868 0.289232 36.3882 -0.502221 38.2211 0.517536C39.8454 1.40031 40.3967 4.3226 41.559 6.63608H49.6952C48.7117 12.4046 46.0443 15.1594 39.905 16.7575V46.0565C42.4084 46.7719 44.1519 45.8282 46.0592 44.0627C53.9868 36.757 62.7339 37.6854 69.3799 46.2696C76.9796 56.1019 76.1302 70.9264 67.3682 81.4588C66.8318 82.0981 66.2953 82.7221 65.6844 83.4223L70.125 91.6869L67.5321 93.3306L63.3598 86.0097C59.9175 87.7905 56.52 89.3886 53.2864 91.2759C52.3476 91.8238 51.8708 93.2241 51.1853 94.2286L52.4817 93.772H52.4668ZM63.9558 80.2869C73.3139 70.272 73.6715 55.2039 65.282 46.3914C59.2768 40.0902 51.9155 41.9471 46.6553 47.9591C46.3722 48.2787 46.1785 48.7505 46.089 49.1767C45.6122 51.4445 45.1652 53.7275 44.7032 56.1323C46.7894 57.9588 49.4866 60.0744 51.8559 62.4944C54.2997 64.9905 56.4306 67.8215 58.7552 70.5764L60.9159 69.4805L62.4657 71.9766L60.3646 73.727L63.9409 80.3021L63.9558 80.2869ZM25.4804 76.2383C23.2005 72.0375 23.0366 68.8869 25.9871 67.0909C29.1462 65.1732 28.6544 62.6314 28.6544 59.9374C28.6544 56.589 25.5549 53.8036 22.3511 54.3972C16.5396 55.4931 11.3986 58.0044 7.31563 62.4792C2.38328 67.8976 1.86173 75.7208 6.04902 81.2305C8.89518 84.9899 12.8291 87.0447 17.5529 88.6885C17.2847 82.5699 20.7567 79.0693 25.4804 76.2383ZM20.8312 89.419C21.2335 93.8025 21.6955 94.2743 25.2867 94.2743C31.9774 94.2743 38.6682 94.2134 45.3589 94.32C47.2066 94.3504 48.2646 93.6959 48.8756 91.9608C50.932 86.0401 45.9102 78.3083 39.7411 78.0647C36.5373 77.943 33.3186 77.943 30.1148 78.0647C26.2702 78.2017 21.7402 82.3264 21.2931 86.238H44.4648L44.3158 89.4343H20.8163L20.8312 89.419ZM55.9091 72.4941C51.8261 66.9844 47.7878 61.6573 41.4547 58.2175C41.3802 59.77 41.1418 60.9115 41.3206 61.9921C41.5441 63.3315 41.7378 65.0666 42.617 65.8429C46.5957 69.3131 47.1172 71.3678 44.5393 76.2535C48.8607 78.8866 52.288 82.2199 52.5562 88.3384L61.6908 82.9352L57.6972 75.6295L55.0597 76.9384L53.5397 74.4575L55.8942 72.5246L55.9091 72.4941ZM34.7491 68.3694C33.1397 68.3694 31.7688 68.3238 30.4277 68.3694C28.3862 68.4607 27.06 69.6631 27.1047 71.6874C27.1494 73.7117 28.5054 74.8228 30.5767 74.8076C33.4974 74.8076 36.418 74.7315 39.3536 74.7619C41.4249 74.7619 42.8703 73.7117 42.93 71.7331C42.9896 69.8001 41.6931 68.5064 39.6218 68.3542C39.2046 68.3238 38.7725 68.2629 38.1317 68.202V62.0074H31.9625V64.9449L34.7789 65.3254V68.3542L34.7491 68.3694ZM52.6159 100.53C51.7814 97.6836 49.9187 97.5923 48.0858 97.5771C39.3834 97.5466 30.681 97.5466 21.9786 97.5771C21.159 97.5771 20.2351 97.5466 19.5646 97.9271C18.7897 98.3685 18.2682 99.2513 17.6274 99.9362C18.4023 100.225 19.1771 100.758 19.952 100.758C29.9359 100.819 39.9199 100.804 49.9038 100.789C50.6787 100.789 51.4684 100.636 52.601 100.53H52.6159ZM38.0721 58.4458C37.6996 55.0974 40.8438 54.4277 42.2892 52.4186C42.7362 51.7946 42.5425 50.6987 42.6319 49.8159C41.8272 49.9225 40.8587 49.7703 40.2477 50.1964C39.2046 50.927 38.534 52.4795 37.4462 52.7991C35.9114 53.2709 34.1232 53.1035 32.499 52.86C31.8433 52.7687 31.3665 51.7033 30.7257 51.1705C29.6975 50.3182 28.7587 48.2635 27.1941 50.0138C25.7636 51.6272 27.7454 52.3577 28.565 53.3166C29.8763 54.8538 31.2026 56.3759 32.9758 58.4306H38.0572L38.0721 58.4458ZM44.8969 10.1367H24.5118C29.2952 15.2507 34.8087 12.5111 39.6665 13.1656C41.8422 13.4548 43.7346 12.6176 44.8969 10.1367ZM33.3633 37.5636C33.3633 41.323 33.2739 44.8541 33.4378 48.37C33.4676 49.0549 34.4213 49.7094 34.9428 50.3639C35.4793 49.7246 36.4478 49.1006 36.4776 48.4309C36.6267 44.8237 36.5522 41.2165 36.5522 37.5484H33.3633V37.5636ZM33.3186 22.9826C33.3186 26.0419 33.4527 28.8272 33.2739 31.5821C33.1099 34.1239 34.0636 34.7783 36.3733 34.0021V22.9979H33.3186V22.9826ZM37.476 6.52954C37.4462 4.18562 36.6416 2.78535 34.5405 3.48549C33.5868 3.80511 32.9311 5.09883 32.1413 5.95117L32.797 6.51432H37.4909L37.476 6.52954ZM36.582 19.4363L36.3733 16.4075L33.4974 16.6662V19.4363H36.582Z" fill="black"/>
<path d="M44.6678 37.9746C44.5486 35.7829 46.1729 33.3324 47.6034 31.8256C49.317 30.0296 51.5672 28.6902 53.8918 27.8988C56.2164 27.1073 58.7347 27.3204 60.7017 29.0707C62.2813 30.4862 63.1604 32.4192 64.6059 33.8956C64.7996 34.0934 64.8145 32.3735 64.7698 32.2061C63.98 29.1316 62.8624 25.5701 60.1355 23.698C57.5873 21.9477 54.8157 22.4195 52.1781 23.7284C49.5406 25.0374 47.3054 26.9551 45.8301 29.4513C44.2357 32.1757 43.8929 35.3719 44.2804 38.4616C44.3996 39.451 44.6678 38.4008 44.6529 37.9746H44.6678Z" fill="#D71D3A"/>
<path d="M63.384 28.614C63.4436 29.6642 63.3095 29.3142 63.6373 28.9184C63.8161 28.6901 63.9651 28.4314 64.1439 28.2031C64.5016 27.7313 64.889 27.2899 65.3063 26.8941C66.2003 26.057 67.2732 25.433 68.4504 25.1438C70.3727 24.672 72.8463 25.433 73.5318 27.4877C73.6361 27.8074 73.8596 27.8074 73.9491 27.4877C74.4706 25.5548 75.022 23.7892 76.5568 22.4346C77.7936 21.3388 79.4775 20.6995 81.1017 20.6234C82.726 20.5473 84.4992 21.1257 85.7361 22.2976C86.3917 22.9064 86.6599 23.5609 87.0474 24.3371C87.1219 24.7176 87.1219 24.6872 87.0474 24.2458C86.9878 24.4893 86.9133 24.7329 86.8388 24.9612C86.6599 25.4787 86.4066 25.9809 86.2129 26.4984C86.1086 26.7724 85.9894 29.3142 86.4364 29.2076C87.3454 29.0098 87.6434 27.4269 87.7775 26.6506C88.016 25.3112 87.9862 23.8958 87.8073 22.5412C87.4646 20.0907 86.2427 17.9599 83.9628 16.9249C81.6829 15.8899 79.3732 16.2552 77.436 17.6859C75.3051 19.2536 74.262 21.6736 73.4722 24.1393L73.9789 24.4285C73.1146 21.3083 69.7618 19.7711 66.9156 21.3692C65.4851 22.1606 64.2781 23.4391 63.4287 24.8546C62.5793 26.2701 62.1174 28.5684 62.8922 30.06C63.3095 30.8514 63.4138 28.7967 63.3989 28.5988L63.384 28.614Z" fill="#D71D3A"/>
<path d="M86.7945 30.2882C88.2996 29.8773 89.8195 29.7403 91.3096 30.2882C92.7998 30.8361 94.0962 31.9624 94.8264 33.3931C94.9754 33.6975 95.1244 34.0172 95.2287 34.3368C95.2734 34.489 95.3032 34.6564 95.3479 34.8086C95.4224 35.0369 95.2734 35.1739 95.3479 34.7477C95.1989 35.4783 95.1244 36.2089 94.9009 36.9395C94.6327 37.8375 94.2899 38.7202 93.8727 39.5573C93.3958 40.4858 92.7998 41.3229 92.5614 42.3426C92.4422 42.8601 92.472 43.4842 92.5316 44.0017C92.5614 44.2756 92.5763 44.7779 92.8445 44.9301L92.9935 45.0214L93.0978 44.9605C96.0334 41.125 97.151 35.387 95.6013 30.76C95.0201 29.0249 93.8131 27.3203 92.1292 26.5745C90.3262 25.7678 88.1655 25.8896 86.6157 27.1681C86.2283 27.4877 86.422 30.41 86.7796 30.3186L86.7945 30.2882Z" fill="#D71D3A"/>
<path d="M92.0234 45.0064C94.6162 45.1586 96.5832 46.2696 98.282 48.3396C99.9807 50.4095 101.277 53.1188 100.517 55.7366C99.0122 60.9724 93.3943 64.1991 88.2832 64.0317C87.5977 64.0165 87.702 68.202 88.2683 68.5825C89.7882 69.6175 91.3975 71.3983 91.6062 73.3313C91.8148 75.2642 90.1905 77.5473 88.9388 78.8562C86.7483 81.1545 82.3673 83.0418 79.3274 81.3523C79.089 81.2153 79.1486 83.681 79.3274 83.9854C82.5163 89.5408 89.8925 83.194 91.6211 79.3433C93.7669 74.5793 92.9175 67.167 88.4322 64.0926V68.6434C96.0319 68.8869 101.545 62.5553 101.694 55.0517C101.769 51.7033 101.083 48.2635 99.1761 45.4934C97.9243 43.667 92.9473 38.9639 91.8744 43.2256C91.8148 43.4539 91.6509 44.9759 92.0234 44.9911V45.0064Z" fill="#D71D3A"/>
<path d="M79.7286 82.4483C79.8329 83.118 79.9968 83.7724 80.1458 84.4421C80.2203 84.8074 80.3097 85.1727 80.3693 85.538C80.3991 85.675 80.3693 85.812 80.414 85.5989C80.3246 86.3751 79.8031 87.1666 79.2666 87.7145C78.0596 88.9321 75.9138 89.0691 74.6174 87.8819C74.3045 87.5927 74.2002 88.4907 74.1853 88.6125C74.0809 89.3431 74.0809 90.1345 74.2001 90.8651C74.4237 92.2501 74.5876 93.97 73.7233 95.1876C72.7696 96.527 70.743 96.6488 69.2529 96.8162C67.6286 96.9988 65.9746 96.8466 64.7527 95.6138C64.2609 95.1115 63.8735 94.4875 63.5457 93.8787C63.2625 93.3612 63.188 92.6002 62.8006 92.1588C62.5175 91.8392 62.443 93.8635 62.4579 94.0005C62.5622 96.0552 63.2625 98.5209 64.7974 99.9668C66.4961 101.55 68.7611 101.321 70.8622 101.002C71.8308 100.85 72.7845 100.621 73.5445 99.9516C74.3045 99.2819 74.6621 98.2469 74.8856 97.2728C75.4966 94.5636 75.3476 91.55 74.9005 88.8256L74.4833 91.8087C75.2134 92.8894 76.3161 93.3764 77.6275 93.1329C78.9388 92.8894 79.9521 91.9001 80.5332 90.6977C81.2932 89.13 81.4124 87.2883 81.3081 85.5684C81.2634 84.64 81.1442 83.7116 80.9058 82.8288C80.7121 82.1439 80.414 81.672 80.0564 81.0632L79.9819 81.0176H79.8627C79.5497 81.0785 79.6988 82.2809 79.7286 82.4787V82.4483Z" fill="#D71D3A"/>
<path d="M82.7695 67.365C83.0228 67.8369 83.2314 68.3239 83.3953 68.8414C83.4699 69.0697 83.5295 69.3132 83.5742 69.5415C83.5295 69.3589 83.604 69.7851 83.6189 69.8307C83.6636 70.1503 83.5742 69.572 83.6189 69.9068C83.6785 70.3025 83.6189 69.5568 83.6189 69.8764C83.6189 69.572 83.6189 69.5111 83.6189 69.6937C83.6338 69.435 83.6487 69.3741 83.6189 69.4959C83.6189 69.6024 83.6189 69.5568 83.6487 69.3437C83.6487 69.4046 83.6338 69.4502 83.6189 69.5111C83.6487 69.3741 83.6636 69.3437 83.6338 69.4198C83.6338 69.4654 83.604 69.4959 83.604 69.5415C83.5891 69.5872 83.5742 69.6481 83.5444 69.6937C83.5742 69.6329 83.5742 69.6329 83.5444 69.6785C83.4997 69.7546 83.455 69.8307 83.3953 69.9068C83.2761 70.059 83.142 70.196 82.9781 70.3025L83.0824 70.2264C82.3671 70.6831 81.4284 70.6222 80.6237 70.5309C80.3704 70.5004 80.117 70.47 79.8637 70.4395C79.7296 70.4243 79.6551 70.3939 79.5359 70.47C79.4167 70.5461 79.3273 70.607 79.1783 70.6222C78.6865 70.6831 78.1948 70.6222 77.6881 70.6983C77.4944 70.7287 77.5093 71.3832 77.5093 71.5049C77.5093 71.7028 77.5093 71.9007 77.554 72.0985C77.5689 72.2203 77.5838 72.4334 77.6881 72.5247C77.9563 72.7682 78.2395 72.9509 78.5524 73.1335C78.8802 73.3314 79.2826 73.4836 79.5061 73.788C79.7147 74.0619 80.1021 74.0924 80.43 74.1837C80.728 74.2598 81.0111 74.3359 81.3092 74.3816C81.8307 74.4729 82.3522 74.5338 82.844 74.3055C83.3357 74.0772 83.6636 73.6967 83.902 73.1792C84.2149 72.4943 84.2894 71.7028 84.3341 70.957C84.3788 70.1199 84.3341 69.2676 84.2 68.4305C84.0063 67.2281 83.5891 66.0865 82.8589 65.1277C82.6652 64.8689 82.5758 65.8887 82.5758 65.9496C82.5758 66.4062 82.5609 66.9541 82.7844 67.365H82.7695Z" fill="#D71D3A"/>
<path d="M70.6719 37.4417C71.0593 36.9546 71.4914 36.4828 72.0577 36.2393C72.6239 35.9958 73.22 35.7827 73.816 35.5392C75.0082 35.0521 76.5281 34.976 77.3477 36.1632C77.7202 36.6959 77.8245 37.1677 77.9437 37.7918C77.899 37.5178 77.9735 38.0353 77.9735 38.0353C77.9139 37.6243 78.0033 38.1266 77.9735 38.2179C78.048 37.533 77.9735 38.6289 77.9735 38.2331C77.9735 37.8374 77.9288 38.8724 77.9735 38.3092C77.9735 38.4767 77.9437 38.6441 77.9288 38.8115C77.9586 38.5528 77.8841 39.0703 77.8841 39.055C77.8096 39.4508 77.6904 39.8313 77.601 40.2118C77.4222 41.0641 77.0645 41.8556 76.8708 42.7079C76.8112 42.9666 76.7069 45.204 77.1391 45.1431C77.4967 45.0823 77.601 44.717 77.75 44.4126C77.9288 44.0625 78.1374 43.682 78.2567 43.3015C78.5696 42.3122 78.7186 41.2467 78.808 40.2118C78.9868 37.8831 78.8676 35.3413 78.0331 33.1496C77.75 32.4038 77.3179 31.7189 76.6026 31.3688C75.8873 31.0187 75.0231 31.0948 74.278 31.3536C73.4435 31.6428 72.6984 32.1755 72.1322 32.8604C71.5063 33.6062 70.9252 34.4585 70.493 35.3261C70.2993 35.7218 70.3291 36.2545 70.3589 36.6807C70.3589 36.772 70.493 37.6548 70.6719 37.4417Z" fill="#D71D3A"/>
<path d="M79.8346 48.1416C79.9538 48.3242 80.1029 48.5829 80.3562 48.6286C80.5201 48.659 80.7734 48.5677 80.9373 48.5525C81.2801 48.5221 81.6377 48.5068 81.9804 48.5068C82.6808 48.5068 83.3961 48.6438 84.0517 48.9026C85.3929 49.4353 86.5105 50.5768 86.9426 51.9923C86.8681 51.7183 87.032 52.4793 86.9724 52.1445C86.9426 52.0075 86.9426 52.0379 86.9724 52.2206C86.9426 52.0379 86.9277 51.8401 86.9277 51.6574C86.9277 51.9162 86.9277 51.8705 86.9277 51.5052C86.9426 51.2161 86.9426 51.1856 86.9277 51.4291C86.8681 51.0943 86.9128 51.4596 86.9277 51.3835C86.6893 52.114 86.3912 52.7533 85.8846 53.3317C85.3779 53.91 84.8266 54.2601 84.2454 54.7015C84.0517 54.8537 83.9027 55.0516 83.6792 55.1885C83.5451 55.2646 83.3961 55.3407 83.262 55.4168C82.8596 55.6147 82.4722 55.7365 82.0996 55.98C81.7867 56.1779 81.8612 56.9084 81.8612 57.228C81.8612 57.5477 81.8314 58.2782 82.1592 58.4761C82.8298 58.8718 83.5153 58.6588 84.2454 58.7044C84.8266 58.7349 85.6015 58.0652 86.0038 57.6847C87.3002 56.467 87.7622 54.7319 87.8665 52.9968C88.0155 50.8355 87.8069 48.446 86.6297 46.5891C85.8399 45.3106 84.4839 44.4583 83.0384 44.1995C82.2338 44.0473 81.4142 44.0625 80.6393 44.3822C80.4605 44.4583 80.237 44.5344 80.088 44.6561C79.8495 44.8692 79.6856 45.3715 79.6111 45.6759C79.5068 46.102 79.5068 46.5587 79.5217 46.9848C79.5366 47.3653 79.5515 47.8372 79.775 48.172L79.8346 48.1416Z" fill="#D71D3A"/>
</svg>
