<svg width="85" height="79" viewBox="0 0 85 79" fill="none" xmlns="http://www.w3.org/2000/svg">
<path d="M5.039 40.7404C1.67706 40.3377 -0.00390625 38.4952 -0.00390625 35.2129C-0.00390625 31.2478 -0.00390625 27.2827 -0.00390625 23.3176C-0.00390625 20.8624 0.339328 20.5079 2.76837 20.5079C9.55385 20.5079 16.3393 20.5079 23.1248 20.5079C23.5076 20.5079 23.9037 20.4685 24.4581 20.4422C23.2964 19.3394 22.2139 18.4859 21.3426 17.4487C19.6001 15.3743 18.9796 12.9847 20.2733 10.477C21.5406 8.02176 23.8509 7.20773 26.4779 7.47032C32.4449 8.07428 36.841 11.2779 40.3261 15.9388C40.5373 16.2145 40.7882 16.4903 40.8938 16.8185C41.9631 20.1928 44.3393 20.8099 47.5208 20.114C50.5175 19.4575 53.5803 19.0899 56.577 18.4597C57.6463 18.2365 58.6892 17.7113 59.6265 17.1336C60.8806 16.3721 62.0291 15.1379 61.237 13.7199C60.709 12.7615 59.204 11.7505 58.1875 11.7899C55.9433 11.8818 53.6331 12.3939 51.5208 13.1948C49.8707 13.825 48.5373 15.2036 46.9796 16.1358C46.2139 16.5953 45.2766 16.7791 44.4185 17.0811C44.1413 16.162 43.4284 15.0985 43.6661 14.3239C44.3657 12.0262 45.1974 9.70233 46.4251 7.65413C48.3261 4.48993 51.2832 2.32357 54.5043 0.537962C55.5737 -0.0528639 56.709 -0.433618 57.3954 0.892458C58.0555 2.17915 57.0522 2.80936 56.1017 3.53148C53.8443 5.25144 51.7057 7.11582 49.5539 8.98021C49.1314 9.34783 48.9202 9.96492 48.5241 10.6083C50.7156 9.87301 52.6298 8.86204 54.6364 8.6651C56.8542 8.4419 59.3228 8.49442 61.3558 9.28219C65.171 10.7527 66.1479 15.3349 63.2568 18.2234C61.6727 19.812 59.402 21.2563 57.237 21.6633C51.7057 22.7136 46.0687 23.6064 40.4449 23.764C28.907 24.0791 17.3558 23.8559 5.81788 23.8559C5.0654 23.8559 4.31293 23.8559 3.45484 23.8559V37.0641C3.95649 37.1167 4.48454 37.2086 5.0126 37.2086C8.27332 37.2611 8.37893 37.353 8.37893 40.6879C8.37893 48.408 8.37893 56.1412 8.37893 63.8614C8.37893 67.682 8.37893 71.5027 8.37893 75.481H75.4548V47.2395C74.5704 47.2395 73.7519 47.2395 72.9334 47.2395C54.9532 47.2395 36.973 47.2395 19.006 47.2395C18.3723 47.2395 17.7519 47.2526 17.1182 47.2395C14.0027 47.1476 11.7849 45.0468 11.7849 42.224C11.7849 39.4012 14.0159 37.2479 17.1182 37.2348C26.2799 37.2086 35.4548 37.2348 44.6166 37.2348C56.2997 37.2348 67.9829 37.2348 79.6661 37.2086C79.9301 37.2086 80.1941 37.1429 80.5373 37.0904V23.8559C79.7849 23.8559 79.0456 23.8559 78.3063 23.8559C74.4647 23.8559 70.61 23.9215 66.7684 23.7771C66.0951 23.7509 65.4614 22.8318 64.8014 22.3329C65.3426 21.7289 65.8839 20.6129 66.4383 20.5998C71.7585 20.4685 77.0786 20.4685 82.3855 20.6129C82.94 20.626 83.9037 21.8996 83.9301 22.5955C84.0621 27.8866 83.9961 33.1647 83.9961 38.4559C83.9961 40.1102 83.006 40.5566 81.5274 40.5566C71.0984 40.5434 60.6826 40.5566 50.2535 40.5566C39.4152 40.5566 28.577 40.5566 17.7255 40.5566C16.4449 40.5566 15.1512 40.6485 15.204 42.2897C15.2568 43.9177 16.6034 43.9046 17.8443 43.9046C36.9466 43.9046 56.0489 43.9046 75.138 43.9046C77.6815 43.9046 78.9532 45.1956 78.9532 47.7778C78.9532 57.1653 78.9664 66.566 78.9796 75.9536C78.9796 78.6845 78.6628 78.9996 75.9961 78.9996C53.3294 78.9996 30.6628 78.9996 7.99609 78.9996C5.32943 78.9996 5.0258 78.6845 5.0258 75.9405C5.0258 65.0168 5.039 54.0931 5.0522 43.1693C5.0522 42.4078 5.0522 41.6463 5.0522 40.7535L5.039 40.7404ZM38.4251 20.1534L38.9268 19.405C36.8542 17.3305 35.0192 14.9147 32.643 13.2735C30.742 11.9606 28.2337 11.2253 25.8971 10.8971C23.2436 10.5295 22.0819 12.7484 23.6529 14.9804C24.4185 16.0701 25.5539 17.0548 26.742 17.6588C30.3987 19.51 34.3855 20.0221 38.4119 20.1534H38.4251Z" fill="black"/>
<path d="M17.4998 60.1723C17.1962 60.0016 16.853 59.8965 16.4965 59.8834C16.1665 59.8703 15.8629 59.9622 15.546 60.0016C15.2556 60.041 14.9652 60.146 14.7407 60.3298C14.3183 60.6843 14.1995 61.3408 14.1335 61.8397C13.9619 63.0213 14.0015 64.2818 14.2655 65.4372C14.3447 65.7917 14.4635 66.2512 14.7672 66.4875C15.0972 66.7501 15.4932 66.842 15.9025 66.8683C16.7341 66.9208 17.513 66.6845 18.2127 66.2381C18.5691 66.0149 18.886 65.7391 19.1104 65.3715C19.6384 64.5181 19.7308 63.4677 19.7705 62.483C19.8101 61.4327 19.7441 60.3429 19.4932 59.3188C19.4008 58.925 19.2424 58.4917 18.9784 58.1766C18.7275 57.8877 18.3315 57.7039 17.9619 57.6251C17.5922 57.5464 17.2358 57.5464 16.8794 57.5595C16.4437 57.5726 15.9949 57.6251 15.5724 57.7696C15.15 57.914 14.7539 58.1897 14.4899 58.5573C13.9091 59.3976 13.8167 60.5267 13.7771 61.5115C13.7374 62.6275 13.7771 63.7697 14.0675 64.8595C14.1599 65.2402 14.3051 65.6735 14.5691 65.9755C14.82 66.2512 15.2292 66.4613 15.612 66.435C16.0477 66.4087 16.2193 65.923 16.3117 65.5685C16.4965 64.8332 16.5229 64.0586 16.5097 63.3102C16.5097 62.7588 16.4437 62.2204 16.3381 61.6821C16.2853 61.3802 16.2325 60.96 16.0081 60.7237L15.8497 60.6318L15.9289 60.5793C15.9289 60.5793 15.546 60.4086 15.6648 60.4217C15.5856 60.4217 15.4932 60.4348 15.414 60.4217C15.2292 60.4217 15.0708 60.3561 14.9124 60.2642L15.0972 60.3692C14.9256 60.2642 14.7804 60.1197 14.6879 59.9491L14.8596 60.251C14.82 60.1723 14.7672 59.9884 14.8596 60.3429C15.2292 61.5508 15.2028 63.494 15.0048 64.3474C15.0576 64.1111 14.9124 64.6625 14.9256 64.6494C14.952 64.5969 14.9652 64.5312 14.9916 64.4787L14.8332 64.7938C14.9916 64.4787 15.2424 64.2293 15.5328 64.0323L15.3612 64.1505C15.9157 63.796 16.5757 63.6909 17.2226 63.6384C17.7242 63.599 18.2655 63.5859 18.7275 63.8485L18.5559 63.7435C18.7011 63.8354 18.82 63.9404 18.9124 64.0848L18.754 63.796C18.8464 63.9535 18.8464 64.1111 18.7143 63.5728L18.5559 60.3823C18.5559 60.1723 18.6087 59.9622 18.6615 59.7521C18.7672 59.3714 18.6219 59.8309 18.5823 59.9228L18.7275 59.6208C18.4635 60.1591 18.0015 60.5793 17.513 60.9075L17.6714 60.8025C17.2358 61.0782 16.7606 61.2751 16.2589 61.367C15.8233 61.4458 15.2952 61.4983 14.886 61.2883L15.0444 61.3802C14.9256 61.3145 14.8596 61.2357 14.7804 61.1176L14.9256 61.3802L15.0972 62.1285L15.2028 63.4152C15.216 63.8748 15.2028 64.3343 15.1236 64.7938C15.1236 64.7544 15.1368 64.7019 15.15 64.6625L15.084 64.8989C15.084 64.8989 15.1104 64.807 15.1236 64.7676C15.1764 64.61 15.2556 64.4656 15.3216 64.308L15.216 64.5312C15.414 64.1242 15.6912 63.6516 16.0873 63.389L15.9817 63.4546C16.4701 63.1526 17.0378 62.9688 17.6186 63.0739C17.9883 63.1395 18.0279 60.4217 17.5526 60.146L17.4998 60.1723Z" fill="#D71D3A"/>
<path d="M34.7144 50.588C34.3712 50.6667 33.9883 50.8243 33.7771 51.1131C33.4999 51.4808 33.4471 52.006 33.3943 52.4524C33.3019 53.3189 33.3283 54.2248 33.4735 55.0782C33.5923 55.7741 33.7903 56.5619 34.358 57.0345C34.6616 57.2971 35.0444 57.4284 35.4405 57.3103C35.7969 57.2052 36.1269 56.9426 36.2986 56.6275C36.4966 56.2862 36.589 55.9711 36.6814 55.5903C36.853 54.8419 36.8662 54.041 36.853 53.2926C36.8398 52.5443 36.7738 51.7565 36.5626 51.0212C36.4438 50.6274 36.325 50.2729 36.0873 49.9184C35.8497 49.5639 35.4537 49.3144 35.0576 49.17C34.292 48.8943 33.4471 49.2094 32.9058 49.7871C32.5098 50.2203 32.325 50.8112 32.2194 51.3626C32.0213 52.3604 32.0213 53.4239 32.1137 54.4218C32.1798 55.1176 32.2854 55.8135 32.5098 56.47C32.787 57.2577 33.5131 58.0586 34.424 58.0192C35.2557 57.9799 35.8233 57.2183 36.0345 56.4962C36.2986 55.5772 36.3514 54.6056 36.325 53.6603C36.2986 52.7149 36.2062 51.7696 35.9025 50.8768C35.7441 50.4173 35.3481 49.7477 34.7672 49.8265C34.49 49.8658 34.2128 50.0628 33.9883 50.2203C33.8167 50.3385 33.6583 50.4829 33.5131 50.6405C33.3019 50.8899 33.1566 51.2444 33.0246 51.5464C32.8794 51.9009 32.787 52.2817 32.721 52.6624C32.523 53.7784 32.5494 54.9863 32.7606 56.1023C32.787 56.2599 32.8266 56.4175 32.8794 56.575C32.919 56.7457 32.985 56.9032 33.0906 57.0345L33.2491 57.1264C33.4075 57.0608 33.4999 56.9426 33.5263 56.7588C33.5527 56.68 33.5923 56.5881 33.6319 56.5094L33.4999 56.7851C33.6055 56.5619 33.7639 56.3912 33.9223 56.2074C34.1203 55.9973 34.3052 55.8004 34.5428 55.6428L34.3844 55.7478C34.6616 55.5772 34.952 55.4327 35.2689 55.5772L35.0972 55.4853C35.2557 55.5772 35.3613 55.6953 35.4537 55.8529L35.2953 55.564C35.3349 55.6428 35.3745 55.7216 35.4009 55.8004L35.2689 55.354C35.2689 55.354 35.2689 55.3934 35.2821 55.4196C35.3217 55.6034 35.2821 55.4459 35.1897 54.947C35.1104 54.4218 35.084 53.8835 35.084 53.3452C35.084 52.8725 35.0972 52.3867 35.2029 51.914C35.2029 51.9534 35.1897 51.9928 35.1765 52.0322L35.2953 51.5858C35.2689 51.6908 35.2293 51.7959 35.1765 51.9009L35.3217 51.6121C35.1897 51.8747 35.0048 52.0979 34.754 52.2554L34.9124 52.1504C34.4636 52.4392 33.9223 52.413 33.4603 52.1504L33.6319 52.2423C33.3679 52.0847 33.1434 51.8615 32.985 51.5858L33.1434 51.8615C33.0906 51.7565 33.0378 51.6646 33.0114 51.5464L33.1434 51.9797C33.1434 51.9797 33.1302 51.9272 33.1302 51.914C33.0906 51.7302 33.117 51.8878 33.2095 52.3604V52.3079C33.2887 52.8331 33.3151 53.3583 33.3019 53.8966C33.3019 54.343 33.3019 54.8157 33.1963 55.2621C33.1963 55.2095 33.2095 55.1702 33.2227 55.1176L33.1038 55.5509C33.1302 55.4459 33.1699 55.3277 33.2227 55.2358L33.0774 55.5247C33.2359 55.2095 33.4735 54.9601 33.7639 54.7631L33.6055 54.8682C34.1996 54.4874 34.9256 54.4612 35.5329 54.8157L35.3745 54.7238C35.6253 54.8813 35.8365 55.0651 35.9817 55.3277L35.8365 55.052C35.8761 55.1308 35.9157 55.2227 35.9553 55.3146L35.8233 54.8944C35.8233 54.8944 35.8233 54.9338 35.8365 54.9601C35.8761 55.1308 35.8497 54.9863 35.7573 54.5268C35.6913 54.0279 35.6517 53.529 35.6649 53.03C35.6649 52.5968 35.6649 52.1372 35.7705 51.7171C35.7705 51.7565 35.7573 51.809 35.7441 51.8484L35.8497 51.4283C35.8233 51.5333 35.7837 51.6383 35.7309 51.7302L35.8629 51.4545C35.7441 51.6777 35.5989 51.8615 35.3877 52.006L35.5329 51.914C35.1236 52.1766 34.5956 52.1504 34.1731 51.914L34.3184 51.9928C34.1864 51.914 34.0675 51.809 33.9883 51.6777L34.1203 51.914C34.0543 51.7828 34.0411 51.6121 34.1599 52.0979L34.3316 53.5552C34.358 54.0016 34.3316 54.448 34.2524 54.8813C34.1864 55.1176 34.1732 55.1964 34.1996 55.0914C34.1996 55.0651 34.2128 55.0389 34.226 54.9995C34.2524 54.9207 34.292 54.8419 34.3184 54.7763L34.2128 54.9863C34.3844 54.645 34.622 54.3561 34.8992 54.1067C35.0576 53.9622 35.0972 53.4371 35.1236 53.2664C35.1633 52.8856 35.1633 52.4917 35.1368 52.111C35.1236 51.7696 35.0972 51.402 35.0048 51.0738C34.9784 50.9687 34.886 50.5092 34.7144 50.5486V50.588Z" fill="#D71D3A"/>
<path d="M46.1207 64.3869C45.7643 64.2556 45.3814 64.3869 45.1306 64.6626C44.9062 64.9252 44.827 65.3059 44.761 65.621C44.629 66.2644 44.6158 66.9471 44.629 67.6036C44.6422 68.26 44.7082 68.9822 44.8534 69.6518C44.9854 70.2426 45.2362 70.8597 45.7643 71.201C46.1603 71.4505 46.596 71.5555 47.0712 71.4243C48.0613 71.1485 48.7346 70.1507 49.0118 69.2185C49.157 68.7196 49.2494 68.2207 49.3022 67.6955C49.4211 66.5795 49.3947 65.4241 49.2098 64.3081C49.1306 63.8223 49.0382 63.284 48.8138 62.8376C48.6818 62.5619 48.5234 62.2861 48.2593 62.1023C47.8369 61.8003 47.3616 61.6822 46.86 61.7741C46.3583 61.866 45.8963 62.168 45.5135 62.4831C45.1306 62.7982 44.7346 63.1789 44.4838 63.5991C44.2461 63.993 44.1141 64.4 44.0349 64.8595C43.7973 66.1593 43.8237 67.5511 44.0349 68.8509C44.1537 69.6255 44.3517 70.5577 44.959 71.1223C45.289 71.4374 45.7511 71.6606 46.2263 71.6343C46.7016 71.6081 47.124 71.3717 47.4673 71.0698C47.9689 70.6102 48.2065 69.9012 48.3385 69.2579C48.563 68.1288 48.563 66.934 48.4574 65.7917C48.4046 65.1221 48.2989 64.4131 48.0613 63.7698C47.9821 63.5728 47.8897 63.389 47.7709 63.2183C47.4805 62.8245 46.9524 62.6932 46.5036 62.8507C45.8963 63.0739 45.5663 63.5466 45.3815 64.1374C45.1306 64.912 45.0514 65.7392 45.0382 66.5532C45.025 67.1834 45.0382 67.8268 45.091 68.457C45.1438 69.0872 45.2098 69.8618 45.4739 70.4658C45.5135 70.6627 45.6323 70.794 45.8171 70.8597C46.0019 70.7809 46.1075 70.6496 46.1339 70.4527C46.2395 70.0982 46.3055 69.7437 46.3451 69.3892C46.398 68.8903 46.4112 68.3913 46.398 67.8924L46.2527 69.9931C46.3187 69.678 46.3451 69.3629 46.3583 69.0347C46.3848 68.6408 46.398 68.2469 46.3848 67.8662C46.3848 67.341 46.3187 66.8421 46.2527 66.3169C46.2131 65.9755 46.3319 67.1047 46.3055 66.8158C46.2791 66.5138 46.3451 67.7349 46.3319 67.4198C46.3187 67.1047 46.3055 68.3651 46.3319 67.9975C46.3187 68.352 46.3055 68.7327 46.2263 69.0872C46.2395 69.0347 46.2527 68.969 46.2659 68.9165L46.1471 69.3892C46.1735 69.2973 46.2131 69.2054 46.2527 69.1135L46.1075 69.4154C46.2131 69.2185 46.3451 69.0609 46.53 68.9296L46.3583 69.0478C46.7016 68.8246 47.1372 68.7458 47.4937 68.9428L47.3088 68.8377C47.4409 68.9165 47.5333 69.0347 47.6125 69.166L47.4409 68.864C47.4409 68.864 47.4805 68.969 47.5069 69.0216L47.3617 68.5489C47.4277 68.7721 47.4013 68.6145 47.2824 68.1025C47.19 67.4198 47.1504 66.737 47.1768 66.0543C47.1768 65.6735 47.2296 65.3059 47.2956 64.9383C47.2956 64.9777 47.2824 65.0039 47.2692 65.0433L47.3881 64.5707C47.3617 64.6888 47.3088 64.807 47.256 64.9252L47.4145 64.6101C47.2428 64.9383 47.0052 65.2009 46.7016 65.3978L46.8732 65.2797C46.3715 65.6079 45.7643 65.6735 45.2362 65.3716L45.4211 65.4766C45.1702 65.3322 44.9722 65.1221 44.827 64.8726L44.9854 65.1746C44.9326 65.0827 44.9062 65.0039 44.8666 64.8989L45.0118 65.3584C45.0118 65.3584 44.9986 65.2928 44.9854 65.2665C45.1306 65.8836 45.1966 66.5007 45.1966 67.1309C45.223 67.7611 45.1966 68.3782 45.0778 68.9953C45.0778 68.9559 45.0778 68.9297 45.1042 68.8903L44.9854 69.3629C45.0118 69.2841 45.0382 69.2054 45.0646 69.1266L44.9194 69.4286C45.091 69.0872 45.355 68.7984 45.6059 68.5226C45.8567 68.2469 46.1339 67.9975 46.4508 67.7874L46.2791 67.8924C46.8468 67.5379 47.5729 67.3935 48.1801 67.7349L48.0085 67.6298C48.1933 67.748 48.3385 67.8924 48.4442 68.0894L48.2857 67.8005C48.2857 67.8005 48.3385 67.9187 48.3649 67.9843C48.2593 67.6167 48.2197 67.5117 48.2725 67.6823L48.1801 67.2097C48.2197 67.4591 48.1933 67.2753 48.1141 66.6845C48.0745 66.2512 48.0613 65.8048 48.0877 65.3716C48.1273 64.7807 48.1405 64.5969 48.1273 64.8464C48.1141 64.9777 48.1273 64.9252 48.1537 64.6626C48.2197 64.1899 48.1801 64.4788 48.1537 64.5969C48.2725 63.9798 48.2461 64.2293 48.1933 64.3869C48.1537 64.5182 48.0877 64.6494 48.0349 64.7676L48.1801 64.4788C47.9557 64.9252 47.6389 65.3453 47.2164 65.621L47.3748 65.516C46.8336 65.8574 46.1339 65.923 45.5663 65.6079L45.7247 65.6998C45.5663 65.6079 45.4343 65.4897 45.355 65.319L45.5003 65.5816C45.5003 65.5816 45.4739 65.5291 45.4607 65.5029C45.6191 65.9361 45.6983 66.3957 45.7247 66.8552C45.6587 68.6933 45.6587 69.2841 45.7247 68.6277C45.7379 68.5095 45.7247 68.562 45.6983 68.7852C45.6587 69.0084 45.6587 69.0609 45.6851 68.9428C45.6059 69.2448 45.5795 69.3235 45.6323 69.1791C45.6587 69.1135 45.6851 69.0347 45.7247 68.969L45.6059 69.2185C45.7115 69.0084 45.8567 68.8246 46.0415 68.6933L45.9095 68.7721C46.0019 68.7065 46.1075 68.6671 46.2131 68.6408C46.4376 68.5883 46.5036 68.1419 46.53 67.9975C46.6356 67.5117 46.6488 66.9602 46.6356 66.4744C46.6224 65.9887 46.596 65.4503 46.464 64.9514C46.398 64.7282 46.3583 64.4131 46.1207 64.3343V64.3869Z" fill="#D71D3A"/>
<path d="M64.734 53.8831C64.47 53.8568 64.1927 53.8568 63.9155 53.8831C63.6647 53.9093 63.4271 53.8437 63.1894 53.8568C62.9782 53.8699 62.7406 54.0406 62.5954 54.1982C62.3577 54.4739 62.2521 54.9203 62.1861 55.2617C62.0673 55.905 62.0409 56.5746 62.0541 57.2311C62.0541 57.7431 62.1069 58.2814 62.1861 58.7935C62.2917 59.4237 62.437 60.0802 62.8198 60.5922C63.1762 61.078 63.8495 61.1962 64.404 61.1568C64.9584 61.1174 65.4601 60.9073 65.9089 60.5922C66.3974 60.264 66.701 59.8176 66.9254 59.2793C67.2158 58.5703 67.2818 57.73 67.3082 56.9816C67.3478 55.8656 67.295 54.7102 67.0178 53.6336C66.8462 52.964 66.5558 52.2287 65.9881 51.7823C65.5921 51.4804 65.0904 51.2572 64.5888 51.3622C64.0211 51.4804 63.5327 51.9399 63.2422 52.4257C62.6614 53.3841 62.5426 54.5658 62.5162 55.6555C62.4898 56.7453 62.5294 57.9795 62.8198 59.0823C62.9386 59.5156 63.097 60.0145 63.4006 60.3559C63.7571 60.7629 64.3379 60.9467 64.8528 60.8023C65.5525 60.6053 65.9485 60.0145 66.2389 59.3974C66.4238 59.0167 66.5162 58.5834 66.5954 58.1633C66.767 57.2573 66.8198 56.312 66.8066 55.3929C66.7934 54.4739 66.7142 53.568 66.4766 52.7145C66.3577 52.2944 66.2125 51.8349 65.9353 51.4804C65.7901 51.2966 65.5525 51.1521 65.328 51.1259C65.0244 51.0734 64.734 51.2834 64.5096 51.4672C64.0475 51.8349 63.6647 52.2813 63.3742 52.7933C62.8198 53.7518 62.767 54.9465 62.767 56.0363C62.767 56.916 62.767 56.01 62.767 55.8656C62.767 55.9181 62.767 55.9575 62.767 56.01C62.767 56.3383 62.767 56.6665 62.767 56.9816C62.7934 57.4411 62.833 57.9138 62.9782 58.3471C63.031 58.5046 63.163 58.9379 63.3875 58.7147L63.4931 58.5046L63.5327 59.2399C63.5327 59.2399 63.5723 59.2268 63.5855 59.2268C63.6779 59.2136 63.7835 59.1217 63.8363 59.0561C63.9287 58.951 63.9947 58.8066 64.0739 58.6884C64.2455 58.439 64.4304 58.1895 64.6284 57.9532C64.8264 57.7169 65.0244 57.4805 65.2752 57.3099L65.0904 57.428C65.2884 57.3099 65.4997 57.2705 65.7109 57.3755L65.5261 57.2705C65.6581 57.3492 65.7505 57.4674 65.8297 57.5987L65.6581 57.2967C65.6581 57.2967 65.6977 57.3886 65.7241 57.428C65.7241 57.4543 65.7373 57.4805 65.7505 57.4937C65.8033 57.6381 65.7637 57.5199 65.6449 57.1392C65.6713 57.2573 65.7109 57.4674 65.6185 56.9816C65.5657 56.7059 65.5525 56.6402 65.5789 56.7715C65.5129 56.1282 65.4865 55.9313 65.5129 56.1676C65.5393 56.4302 65.5129 56.207 65.4733 55.4717V54.7496C65.5261 54.0931 65.5393 53.8962 65.5129 54.1325C65.5129 54.1588 65.5129 54.1982 65.5129 54.2244L65.5789 53.7255C65.5789 53.7255 65.5657 53.8043 65.5525 53.8568C65.5525 53.9224 65.5261 53.9881 65.5129 54.0406L65.6449 53.5548C65.5921 53.7386 65.5261 53.9224 65.4469 54.0931L65.6053 53.778C65.4601 54.08 65.2488 54.3295 64.9716 54.5133L65.1564 54.3951C64.7208 54.6708 64.1531 54.7759 63.6779 54.5133L63.8627 54.6183C63.7043 54.5133 63.5855 54.3951 63.4931 54.2376L63.6647 54.5395C63.6647 54.5395 63.6119 54.4345 63.5987 54.382C63.5459 54.2376 63.5723 54.3557 63.7043 54.7365C63.6647 54.6052 63.6779 54.6708 63.7439 54.9465C63.7967 55.2223 63.8099 55.2879 63.7835 55.1566C63.8495 55.603 63.8891 56.0363 63.9023 56.4827V57.1917C63.8495 57.835 63.8363 58.0188 63.8627 57.7563C63.7835 58.2683 63.7571 58.439 63.7967 58.242C63.7967 58.2158 63.7967 58.1895 63.8099 58.1633C63.8627 57.8875 63.6647 58.6753 63.7439 58.4259C63.7835 58.3077 63.8231 58.1764 63.8891 58.0582L63.7439 58.3602C63.9287 57.9926 64.1795 57.6775 64.5096 57.4411L64.3379 57.5462C64.8132 57.2442 65.3544 57.2311 65.8561 57.5068L65.6845 57.4018C65.9881 57.5856 66.2257 57.8219 66.3974 58.1239L66.2389 57.835C66.2917 57.9269 66.3181 58.0451 66.3709 58.137C66.3709 58.137 66.2125 57.5987 66.2785 57.8613C66.3181 58.0451 66.2917 57.9007 66.1861 57.4018C66.1333 57.0867 66.1069 56.7847 66.0937 56.4696C66.0673 55.9313 66.0673 55.4061 66.1201 54.8678C66.1993 54.382 66.2257 54.2244 66.1861 54.4082C66.1597 54.5527 66.1861 54.4476 66.2653 54.08C66.2257 54.185 66.1993 54.2901 66.1465 54.3951L66.2917 54.0931C66.0805 54.5133 65.7637 54.8415 65.3808 55.1041L65.5525 54.9991C64.7604 55.498 63.7703 55.6424 62.9254 55.1829L63.0838 55.2748C62.9782 55.2091 62.899 55.1304 62.833 55.0122L62.9782 55.2748C62.9782 55.2748 62.9518 55.2223 62.9386 55.196C63.0046 55.3667 63.0442 55.5505 63.0706 55.7343C63.1234 55.9838 63.1498 56.2464 63.163 56.509C63.2026 56.9685 63.2158 57.4018 63.1894 57.8613C63.1894 58.0057 63.1762 58.137 63.1498 58.2814C63.1234 58.4915 63.1102 58.5309 63.1366 58.3996C63.1366 58.4127 63.031 58.7803 63.0838 58.5834C63.097 58.5309 63.1102 58.4915 63.1234 58.439C63.163 58.3208 63.2026 58.2158 63.2554 58.0976L63.1498 58.3208C63.2818 58.0582 63.4535 57.7956 63.6251 57.5462C63.7967 57.2967 63.9815 57.1129 64.2323 56.9422L64.1399 56.9947C64.3643 56.8503 64.5888 56.7322 64.8264 56.614C64.9716 56.5352 64.998 56.3383 65.0376 56.207C65.1036 55.8919 65.1168 55.5374 65.1036 55.2223C65.0904 54.9072 65.0772 54.5658 64.9848 54.2507C64.9584 54.1456 64.9056 53.8568 64.7604 53.8568L64.734 53.8831Z" fill="#D71D3A"/>
<path d="M13.2256 24.46C12.4599 25.9043 11.681 27.3485 11.1002 28.8847C10.8097 29.6724 10.5325 30.4602 10.2685 31.248C9.89885 32.3902 9.67443 33.5194 9.54242 34.7142C9.46321 35.4231 9.48961 36.1847 9.63483 36.8936C9.64803 36.9724 9.87245 37.9309 10.1101 37.5895C10.5457 36.9462 10.7173 36.1978 10.9286 35.4757C11.1794 34.596 11.4434 33.7294 11.7206 32.8629C12.3147 31.0379 12.8824 29.1998 13.582 27.4142C13.8196 26.8233 13.7536 26.0093 13.6744 25.3922C13.648 25.1559 13.6216 24.8408 13.516 24.6176C13.4764 24.5519 13.3444 24.2631 13.2388 24.46H13.2256Z" fill="#D71D3A"/>
<path d="M20.3552 23.8827C20.2628 23.7645 20.408 23.6989 20.2364 23.7383C20.1571 23.7645 20.0911 23.8564 20.0383 23.9089C19.9591 23.9877 19.8799 24.0796 19.8007 24.1715C19.5895 24.421 19.4047 24.7098 19.2331 24.9724C18.8898 25.4845 18.5598 25.9965 18.2826 26.548C17.6225 27.8609 17.0152 29.1739 16.5664 30.5787C16.3156 31.3665 16.1571 32.1542 16.1307 32.9814C16.1043 33.5591 16.1307 34.1499 16.1703 34.7276C16.21 35.2659 16.276 35.8568 16.4872 36.3688C16.5268 36.4738 16.6324 36.7233 16.7908 36.7233C16.9096 36.7233 16.9492 36.5526 17.002 36.487L17.068 36.3557H17.2793C17.2793 36.3557 17.3717 36.0931 17.3849 36.08C17.5037 35.7648 17.6357 35.4497 17.7545 35.1346C18.2826 33.7823 18.8502 32.4562 19.4047 31.117C19.7479 30.303 20.1439 29.5152 20.474 28.7012C20.7908 27.9397 20.9492 27.2044 20.9756 26.3773C20.9888 25.7865 20.9756 25.1825 20.8568 24.5917C20.8172 24.3816 20.7908 24.1453 20.6588 23.9615C20.6456 23.8958 20.606 23.8433 20.54 23.8302C20.474 23.7645 20.4212 23.7908 20.3552 23.8696V23.8827Z" fill="#D71D3A"/>
<path d="M29.7927 24.0399C29.1854 24.3025 28.8686 24.9065 28.565 25.4579C28.1821 26.18 27.8125 26.9153 27.5089 27.6768C26.6376 29.8431 26.0171 32.2327 26.1359 34.5698C26.1623 35.0949 26.2019 35.6332 26.3339 36.1584C26.4528 36.6311 26.7168 37.3663 27.1128 36.4341C27.2448 36.119 27.324 35.7645 27.4429 35.4494C27.7333 34.6879 27.9181 33.8608 28.1821 33.0861C28.7762 31.3136 29.5947 29.6068 30.0963 27.8081C30.2943 27.0728 30.3207 26.2719 30.2415 25.5104C30.2283 25.3529 30.0699 23.9086 29.7795 24.0399H29.7927Z" fill="#D71D3A"/>
<path d="M38.2293 24.3025C37.9784 24.5651 37.7144 24.8146 37.4504 25.064C37.1864 25.3135 36.9883 25.6942 36.7507 25.9831C36.2755 26.5608 35.9322 27.3092 35.6022 27.9788C35.2062 28.7797 34.8629 29.5806 34.5857 30.4208C34.4405 30.8541 34.3085 31.3005 34.1897 31.7469C33.8728 32.9154 33.8068 34.0708 33.8068 35.2788L33.8596 33.782C33.82 34.2809 33.7936 34.793 33.7672 35.2919C33.7276 36.0796 33.7672 36.9331 33.9652 37.7077C34.0048 37.8784 34.1765 38.6662 34.5065 38.3379C34.5593 38.2854 34.5989 38.246 34.6517 38.1935L34.4933 38.2985C34.9817 38.1541 35.0213 37.6421 35.1402 37.2219C35.259 36.8018 35.391 36.3948 35.523 35.9877C35.7738 35.1868 36.0642 34.3991 36.3547 33.6113C36.6451 32.8235 37.0807 32.0095 37.358 31.1824C37.49 30.7753 37.688 30.3946 37.8728 30.0138C38.1237 29.5018 38.3217 28.9766 38.5857 28.4646C38.9817 27.6899 38.9289 26.6527 38.8497 25.8124C38.8365 25.6155 38.6253 23.9218 38.2293 24.3288V24.3025Z" fill="#D71D3A"/>
<path d="M46.6756 23.8299C46.4908 23.9218 46.5304 23.9218 46.2664 23.8562L46.0948 23.9612C45.9628 24.1188 45.8308 24.2763 45.6987 24.4339L45.8836 24.3157C45.3687 24.6045 45.1047 25.2741 44.8275 25.7731C44.4578 26.4164 44.1278 27.0729 43.8242 27.7425C43.5469 28.3333 43.2961 28.9241 43.0585 29.5281C42.6492 30.5522 42.438 31.7864 42.3324 32.8761C42.2268 33.9659 42.24 35.0293 42.4116 36.0797C42.438 36.2372 42.6228 37.734 43.0453 37.629C43.3225 37.5633 43.4809 37.1957 43.6261 36.9725C43.8638 36.5917 43.9958 36.1847 44.141 35.7777C44.4182 34.99 44.7218 34.2022 45.0387 33.4275C45.3555 32.6529 45.6723 31.8651 46.0156 31.0905C46.2004 30.6704 46.3588 30.2371 46.5304 29.8038C46.6624 29.4756 46.7812 29.1736 46.8605 28.8191C46.9529 28.1364 46.9793 28.0182 46.9133 28.4777C46.9529 28.3333 47.0057 28.1889 47.0453 28.0445C47.2961 27.2436 47.2961 26.2851 47.2169 25.458C47.2037 25.3004 46.9925 23.633 46.6888 23.7905L46.6756 23.8299Z" fill="#D71D3A"/>
<path d="M54.8745 22.2938C53.594 25.668 52.0891 29.0948 51.2574 32.561C50.9802 33.6901 51.0462 35.0819 51.2442 36.211C51.2706 36.3685 51.6402 38.1673 52.0231 37.5765C53.0396 36.0272 53.4884 34.0971 54.0297 32.3378C54.6765 30.2371 55.1386 28.0838 55.5874 25.9306C55.7986 24.959 55.7458 23.843 55.5478 22.8714C55.4818 22.5432 55.1782 21.4666 54.8745 22.2806V22.2938Z" fill="#D71D3A"/>
<path d="M63.2691 23.6725C63.1107 23.8826 62.9522 24.1189 62.7542 24.3159L62.9126 24.2108C62.5826 24.3946 62.4638 24.6572 62.2526 24.9592C62.0678 25.2087 61.8961 25.4319 61.7509 25.6944L60.6948 27.6245C60.2988 28.3466 59.8895 29.0556 59.5331 29.804C59.3747 30.1322 59.2163 30.4736 59.0579 30.8018C58.7674 31.4058 58.6618 32.0754 58.5034 32.7318C58.2262 33.8741 58.3054 35.2264 58.4374 36.3687C58.4374 36.4737 58.7938 38.627 59.1503 38.4038C59.2559 38.3381 59.3747 38.2593 59.4803 38.1937C59.7575 38.0099 59.8235 37.7998 59.9687 37.4978C60.1536 37.104 60.3516 36.7232 60.5232 36.3293C60.906 35.4496 61.2757 34.5437 61.6453 33.664C62.015 32.7844 62.4374 31.9441 62.7146 31.0513C63.0579 29.9747 63.4011 28.898 63.7443 27.8345C64.0348 26.9417 63.9819 25.8914 63.8763 24.9855C63.8499 24.8148 63.5859 23.2392 63.2559 23.6725H63.2691Z" fill="#D71D3A"/>
<path d="M72.7927 23.0419C72.7531 23.2125 72.7267 23.4095 72.6607 23.5802C72.8191 23.1206 72.6739 23.5145 72.6475 23.6327C72.5683 23.9215 72.4627 24.1973 72.3703 24.473C72.159 25.1163 71.9478 25.7597 71.7102 26.403C71.4594 27.0726 71.2217 27.7422 70.9445 28.3987C70.8785 28.5694 70.7993 28.7269 70.7333 28.8976C70.6277 29.1208 70.5617 29.3571 70.5221 29.6066C70.4693 29.8429 70.4561 29.8954 70.4957 29.7641C70.5353 29.646 70.5221 29.6854 70.4561 29.8954C70.4165 30.0136 70.3769 30.1449 70.3373 30.2631C70.2184 30.6044 70.126 30.9589 70.0468 31.3134C69.8092 32.3113 69.8752 33.4929 69.994 34.4908C70.0072 34.6221 70.2448 36.4208 70.6277 36.2632C70.9313 36.1319 71.1029 35.8431 71.301 35.5805L71.1161 35.6987C71.5518 35.5936 71.6574 35.1078 71.8158 34.7402C71.961 34.412 72.093 34.0837 72.225 33.7555C72.4759 33.1122 72.6871 32.4688 72.8719 31.7992C73.1095 30.9721 73.3076 30.1318 73.466 29.2915C73.532 28.937 73.5848 28.5694 73.6376 28.2149C73.664 28.0311 73.6508 28.0967 73.6112 28.4118C73.6244 28.2936 73.6508 28.1886 73.664 28.0704C73.7432 27.5453 73.8224 27.007 73.8884 26.4818C74.0468 25.3001 73.994 23.9215 73.6376 22.7793C73.5848 22.6348 73.4792 22.1622 73.2415 22.1753C72.9511 22.1753 72.8455 22.8843 72.8191 23.0287L72.7927 23.0419Z" fill="#D71D3A"/>
<path d="M77.8347 24.5915L77.3594 25.7469L77.1746 26.1802L77.0558 26.469C77.135 26.2852 77.0954 26.3771 76.937 26.7185C76.6201 27.4275 76.3429 28.1627 76.0393 28.8717C75.7357 29.5807 75.4848 30.3422 75.234 31.0906C74.6796 32.7449 74.4947 34.5568 74.6531 36.303C74.6796 36.6443 74.7324 36.9857 74.8116 37.314C74.8512 37.524 74.9304 37.721 75.0492 37.9048C75.3132 38.0886 75.2736 37.7997 75.432 37.6684C75.3264 38.2068 75.4188 38.3381 75.6829 38.0886C75.8149 37.9836 75.8941 37.8523 75.9205 37.6816C76.0129 37.4846 76.0789 37.2746 76.1581 37.0645C76.4485 36.3161 76.7126 35.5677 76.9502 34.7931C77.2274 33.9003 77.5046 33.0206 77.7687 32.1278C77.9007 31.6026 77.9403 31.4713 77.8743 31.7339L77.9535 31.4713L78.1383 30.8543L78.5739 29.4363C78.9436 28.2284 78.9172 26.8104 78.706 25.5762C78.6399 25.1692 78.2835 23.5018 77.8347 24.5915Z" fill="#D71D3A"/>
</svg>
