<svg width="327" height="75" viewBox="0 0 327 75" fill="none" xmlns="http://www.w3.org/2000/svg">
<path d="M136.755 62.5587C137.75 61.4592 138.68 61.6686 139.478 62.4016C140.551 63.3834 141.52 64.496 142.554 65.5301C144.439 67.402 146.35 69.2476 148.497 71.342C149.021 70.7137 149.505 70.0199 150.081 69.444C152.804 66.7344 155.526 63.9986 158.354 61.3937C158.786 60.9879 159.833 61.2497 160.592 61.1974C160.5 61.7995 160.618 62.6111 160.278 62.9514C156.927 66.3024 153.537 69.6141 150.068 72.8343C148.798 74.0123 147.424 73.8814 146.285 72.7034C143.117 69.3916 139.989 66.0275 136.729 62.5718L136.755 62.5587Z" fill="#E81E40"/>
<path d="M27.4128 63.2396C28.6826 61.9437 29.6643 62.5458 30.5282 63.3966C32.8582 65.7266 35.1228 68.0959 37.4266 70.4521C37.8978 70.9364 38.3952 71.3815 39.089 72.049C39.6911 71.3553 40.1886 70.6877 40.7776 70.0986C43.5134 67.389 46.223 64.6533 49.0635 62.0484C49.4955 61.6557 50.5426 61.9175 51.3019 61.8782C51.171 62.5196 51.2626 63.3704 50.8699 63.7631C47.5974 67.0487 44.2726 70.2819 40.8823 73.4497C39.5472 74.6932 38.1334 74.6016 36.9684 73.3842C33.8007 70.0725 30.6722 66.7084 27.4128 63.2657V63.2396Z" fill="#E81E40"/>
<path d="M246.65 61.1183C247.959 60.0842 248.954 60.4377 249.844 61.3278C252.122 63.6316 254.373 65.9485 256.612 68.2916C257.109 68.8152 257.475 69.4566 258.038 70.2289C259.897 68.1345 261.311 66.3936 262.882 64.8228C264.609 63.0949 266.442 61.4587 268.366 59.9533C268.851 59.5737 269.845 59.8355 270.592 59.8094C270.448 60.4508 270.317 61.0791 270.173 61.7205C270.173 61.7597 270.107 61.799 270.068 61.8383C266.809 64.9929 263.588 68.1607 260.29 71.263C259.007 72.4673 257.436 72.5065 256.363 71.3808C253.143 68.0429 249.988 64.6395 246.663 61.1183H246.65Z" fill="#E81E40"/>
<path d="M285.51 68.658C288.887 65.8175 292.003 63.1996 295.105 60.5816C295.341 60.3852 295.563 60.0187 295.825 60.0056C296.44 59.9533 297.082 60.058 297.71 60.0973C297.553 60.6732 297.579 61.4717 297.199 61.799C294.621 64.0897 291.95 66.2757 289.346 68.5271C288.56 69.2078 287.84 69.9801 287.107 70.7132C286.165 71.6425 285.091 71.6818 284.214 70.7524C281.596 67.9905 278.965 65.2416 276.4 62.4273C275.811 61.7728 274.528 60.9612 275.601 59.9926C276.74 58.9585 277.421 60.3067 278.114 61.0136C280.549 63.5137 282.984 66.027 285.523 68.658H285.51Z" fill="#E81E40"/>
<path d="M92.7487 71.2497C94.8561 69.4172 96.8327 67.6631 98.8616 65.9614C100.616 64.4823 102.422 63.0424 104.215 61.6025C104.543 61.3407 104.922 60.9611 105.263 60.9742C105.878 60.9742 106.493 61.2491 107.095 61.4192C106.846 61.8905 106.716 62.4926 106.349 62.8068C102.514 66.0531 98.6391 69.247 94.7907 72.4671C92.8403 74.1033 91.2957 73.8415 90.1438 71.5901C88.7563 68.8805 87.3426 66.2232 85.0649 64.1027C84.7508 63.8147 84.6984 63.2649 84.5151 62.833C85.1435 62.7937 86.0336 62.4795 86.3477 62.7806C87.7483 64.0896 89.0966 65.4902 90.2485 67.0086C91.2041 68.2783 91.8847 69.7706 92.7356 71.2759L92.7487 71.2497Z" fill="#E81E40"/>
<path d="M202.032 70.5038C205.449 67.6109 208.708 64.849 211.994 62.1001C212.713 61.4979 213.42 60.778 214.258 60.4508C214.847 60.2151 215.672 60.5686 216.392 60.6471C216.091 61.1838 215.92 61.8645 215.475 62.231C211.81 65.3464 208.093 68.3963 204.414 71.4986C202.019 73.5144 200.854 73.2265 199.27 70.53C197.856 68.1214 196.129 65.8831 194.571 63.5531C194.27 63.108 194.113 62.5582 193.903 62.0477C194.584 62.0739 195.526 61.8121 195.893 62.1655C197.254 63.4352 198.524 64.849 199.624 66.3412C200.54 67.5847 201.194 69.0246 202.032 70.4907V70.5038Z" fill="#E81E40"/>
<path d="M175.344 70.2294C178.943 67.1925 182.019 64.6007 185.082 62.022C185.397 61.7602 185.711 61.3283 186.064 61.289C186.627 61.2366 187.216 61.4461 187.805 61.5377C187.648 62.0744 187.661 62.8205 187.308 63.1347C184.768 65.3861 182.137 67.5329 179.572 69.7451C178.747 70.4519 177.988 71.2504 177.202 72.0227C176.221 72.9913 175.108 73.0175 174.205 72.062C171.77 69.4963 169.335 66.9307 166.901 64.352C166.508 63.9332 166.037 63.5405 165.801 63.03C165.579 62.5456 165.618 61.9304 165.539 61.3675C166.194 61.4592 167.071 61.3021 167.464 61.6686C169.047 63.1085 170.5 64.6793 171.953 66.2501C173.118 67.5067 174.179 68.8549 175.344 70.2163V70.2294Z" fill="#E81E40"/>
<path d="M303.587 61.0007C304.791 59.8096 305.825 60.4379 306.558 61.3542C308.142 63.3438 309.595 65.4382 311.074 67.5195C311.401 67.9776 311.637 68.5143 312.017 69.2081C312.514 68.7892 312.933 68.4489 313.352 68.0954C316.716 65.2549 320.067 62.4144 323.431 59.6001C323.824 59.2729 324.295 58.8933 324.766 58.8409C325.264 58.7885 325.8 59.0896 326.324 59.2467C326.127 59.731 326.062 60.3593 325.722 60.6604C321.847 63.946 317.946 67.1792 314.032 70.4124C312.017 72.0879 310.603 71.8261 309.425 69.4961C307.998 66.6948 306.493 63.946 304.11 61.7992C303.888 61.6029 303.77 61.3018 303.587 61.0138V61.0007Z" fill="#E81E40"/>
<path d="M65.9869 70.9357C69.5997 67.8988 72.6627 65.307 75.7388 62.7153C76.053 62.4535 76.3671 62.0215 76.7206 61.9822C77.2834 61.9168 77.8725 62.1131 78.4484 62.2047C78.3044 62.7414 78.3306 63.4876 77.9903 63.8017C75.4116 66.0924 72.7412 68.2784 70.1364 70.5299C69.3117 71.2498 68.5656 72.0614 67.7802 72.8075C66.877 73.6584 65.7251 73.6453 64.8742 72.7552C62.4002 70.1503 59.9394 67.5323 57.4654 64.9144C57.0727 64.4955 56.6014 64.0897 56.3789 63.5923C56.1826 63.1472 56.2611 62.5713 56.2087 62.0608C56.824 62.1131 57.6617 61.9168 58.0151 62.244C59.6906 63.8017 61.2745 65.4772 62.8191 67.1789C63.9056 68.3701 64.9004 69.6398 65.9738 70.9357H65.9869Z" fill="#E81E40"/>
<path d="M230.266 68.3964C233.408 65.9355 236.484 63.5139 239.573 61.1184C240.175 60.6472 240.856 60.2152 241.563 59.9796C241.89 59.8618 242.558 60.1367 242.754 60.4247C242.911 60.6734 242.715 61.354 242.44 61.6158C241.471 62.5714 240.45 63.4615 239.377 64.2993C236.955 66.2104 234.481 68.043 232.073 69.9803C230.541 71.2107 229.507 71.1714 228.146 69.7577C226.156 67.6895 224.114 65.6868 222.138 63.6055C221.391 62.8201 220.763 61.9038 220.174 60.9744C219.991 60.6995 220.148 60.2021 220.161 59.8094C220.593 59.8487 221.012 59.8749 221.444 59.9403C221.535 59.9403 221.614 60.0581 221.693 60.1236C224.389 62.7285 227.072 65.3464 229.769 67.9644C229.887 68.0691 230.005 68.1739 230.253 68.3964H230.266Z" fill="#E81E40"/>
<path d="M120.433 69.6789C123.483 67.2834 126.559 64.8749 129.635 62.4664C130.002 62.1784 130.342 61.7071 130.748 61.6286C131.402 61.5108 132.096 61.6548 132.777 61.681C132.567 62.2438 132.515 62.9899 132.109 63.3303C128.653 66.1839 125.145 69.0113 121.611 71.7602C120.59 72.5586 119.438 72.4016 118.496 71.446C116.231 69.1422 113.953 66.8515 111.741 64.5084C111.139 63.867 110.655 63.1078 110.223 62.3355C110.066 62.0475 110.092 61.4323 110.301 61.2359C110.498 61.0526 111.087 61.1181 111.401 61.2883C111.807 61.4846 112.108 61.8904 112.461 62.2046C113.613 63.2648 114.765 64.312 115.904 65.3854C117.383 66.7729 118.836 68.1735 120.446 69.7051L120.433 69.6789Z" fill="#E81E40"/>
<path d="M10.9985 70.4521C14.1401 67.9781 17.2031 65.5434 20.3054 63.1741C20.973 62.6636 21.8108 62.3233 22.6223 62.0615C22.858 61.983 23.3946 62.3495 23.5648 62.6505C23.6826 62.8469 23.4732 63.3705 23.2507 63.5799C22.2297 64.5486 21.1825 65.5041 20.0829 66.3812C17.7136 68.2661 15.2658 70.0594 12.9228 71.9574C11.2472 73.3188 10.2131 73.2533 8.76017 71.6956C6.95377 69.7583 5.04265 67.9127 3.22316 65.9754C2.43776 65.1507 1.71782 64.2475 1.08951 63.2919C0.853891 62.9385 0.958609 62.3626 0.90625 61.8782C1.42984 61.983 2.11052 61.9044 2.43776 62.2186C5.16046 64.7842 7.8177 67.4153 10.5011 70.0332C10.6058 70.1379 10.7367 70.2296 10.9985 70.4259V70.4521Z" fill="#E81E40"/>
<path d="M45.9792 46.4268H56.5585L63.0917 35.7176L57.932 27.3654L45.9792 46.4268ZM63.2773 9.80743L57.7835 0.731462H47.2042L58.1733 18.2152L63.2588 9.78887L63.2773 9.80743ZM72.873 22.6697L86.5705 0.731462H75.9911L62.6092 22.5955L77.2347 46.4268H87.814L72.873 22.6697ZM1.52734 46.4268H12.1067L18.6399 35.7176L13.4802 27.3654L1.52734 46.4268ZM18.8255 9.80743L13.3317 0.731462H2.77088L13.74 18.2152L18.8255 9.78887V9.80743ZM255.784 15.8766L247.859 24.6185L226.181 0.675781H225.661V46.3526H234.273V21.9087L247.544 36.2001H248.119L255.784 28.015V15.8581V15.8766ZM120.591 46.5011V9.0279H139.783V0.750022H111.924V46.5011H120.591ZM164.152 0.694342H147.207V9.06502H163.948C168.328 9.06502 171.075 11.8119 171.075 15.7282C171.075 19.6444 168.328 22.4655 163.948 22.4655H147.207V46.464H155.912V30.762H164.152C174.361 30.762 180.04 24.0988 180.04 15.7096C180.04 7.32036 174.361 0.694342 164.152 0.694342ZM202.609 0.694342H193.719L176.978 46.4825H186.852L198.173 13.7793L209.495 46.4825H219.369L202.609 0.694342ZM322.045 0.675781L300.366 24.6185L278.688 0.675781H278.168V46.3526H286.78V21.9087L300.051 36.2001H300.626L310.871 25.2681L322.62 12.6843V0.675781H322.045ZM269.538 0.675781L261.52 9.52903V46.3526H270.132V0.675781H269.556H269.538ZM314.027 31.1703V46.3526H322.638V21.9644L314.027 31.1703ZM151.587 11.3665C153.981 11.3665 155.93 13.3153 155.93 15.7096C155.93 18.1039 153.981 20.0527 151.587 20.0527C149.193 20.0527 147.244 18.1039 147.244 15.7096C147.244 13.3153 149.193 11.3665 151.587 11.3665ZM198.062 27.8851C200.456 27.8851 202.405 29.834 202.405 32.2282C202.405 34.6225 200.456 36.5713 198.062 36.5713C195.668 36.5713 193.719 34.6225 193.719 32.2282C193.719 29.834 195.668 27.8851 198.062 27.8851ZM28.4212 22.6697L42.1186 0.731462H31.5393L18.1573 22.5955L32.7828 46.4268H43.3622L28.4212 22.6697Z" fill="black"/>
<mask id="mask0_8791_7351" style="mask-type:luminance" maskUnits="userSpaceOnUse" x="1" y="0" width="322" height="47">
<path d="M45.9816 46.4268H56.561L63.0942 35.7176L57.9344 27.3654L45.9816 46.4268ZM63.2798 9.80743L57.7859 0.731462H47.2066L58.1757 18.2152L63.2612 9.78887L63.2798 9.80743ZM72.8754 22.6697L86.5729 0.731462H75.9936L62.6116 22.5955L77.2371 46.4268H87.8165L72.8754 22.6697ZM1.52979 46.4268H12.1091L18.6424 35.7176L13.4826 27.3654L1.52979 46.4268ZM18.828 9.80743L13.3341 0.731462H2.77332L13.7424 18.2152L18.828 9.78887V9.80743ZM255.787 15.8766L247.862 24.6185L226.183 0.675781H225.664V46.3526H234.276V21.9087L247.546 36.2001H248.121L255.787 28.015V15.8581V15.8766ZM120.594 46.5011V9.0279H139.785V0.750022H111.926V46.5011H120.594ZM164.155 0.694342H147.209V9.06502H163.951C168.331 9.06502 171.078 11.8119 171.078 15.7282C171.078 19.6444 168.331 22.4655 163.951 22.4655H147.209V46.464H155.914V30.762H164.155C174.363 30.762 180.042 24.0988 180.042 15.7096C180.042 7.32036 174.363 0.694342 164.155 0.694342ZM202.612 0.694342H193.721L176.98 46.4825H186.854L198.176 13.7793L209.498 46.4825H219.372L202.612 0.694342ZM322.047 0.675781L300.369 24.6185L278.69 0.675781H278.171V46.3526H286.783V21.9087L300.053 36.2001H300.628L310.874 25.2681L322.622 12.6843V0.675781H322.047ZM269.54 0.675781L261.522 9.52903V46.3526H270.134V0.675781H269.559H269.54ZM314.029 31.1703V46.3526H322.641V21.9644L314.029 31.1703ZM151.59 11.3665C153.984 11.3665 155.933 13.3153 155.933 15.7096C155.933 18.1039 153.984 20.0527 151.59 20.0527C149.195 20.0527 147.246 18.1039 147.246 15.7096C147.246 13.3153 149.195 11.3665 151.59 11.3665ZM198.064 27.8851C200.459 27.8851 202.408 29.834 202.408 32.2282C202.408 34.6225 200.459 36.5713 198.064 36.5713C195.67 36.5713 193.721 34.6225 193.721 32.2282C193.721 29.834 195.67 27.8851 198.064 27.8851ZM28.4236 22.6697L42.1211 0.731462H31.5417L18.1598 22.5955L32.7853 46.4268H43.3646L28.4236 22.6697Z" fill="white"/>
</mask>
<g mask="url(#mask0_8791_7351)">
<path d="M322.641 0.675781H1.52979V46.5011H322.641V0.675781Z" fill="black"/>
</g>
</svg>
