<svg width="30" height="20" viewBox="0 0 30 20" fill="none" xmlns="http://www.w3.org/2000/svg">
<path d="M16.3382 15.6917C16.0345 15.9312 15.7345 16.1616 15.4382 16.392C14.6919 16.974 13.9531 17.5621 13.1994 18.1381C12.8581 18.3988 12.4681 18.6049 11.9993 18.6868C11.9618 18.6929 11.9243 18.6989 11.8868 18.702C11.8493 18.702 11.8118 18.702 11.7555 18.702C11.7668 18.5595 11.778 18.42 11.7893 18.2836C11.9281 16.8437 12.0706 15.4037 12.2093 13.9638C12.2318 13.7364 12.2468 13.506 12.2768 13.2787C12.2843 13.2241 12.3218 13.1605 12.3706 13.1241C14.6169 11.4598 16.867 9.80161 19.1134 8.14037C20.9397 6.79137 22.766 5.44237 24.5923 4.09338C24.6711 4.03275 24.7499 3.96606 24.8061 3.8933C24.8811 3.79933 24.8361 3.71141 24.7011 3.67504C24.5136 3.6235 24.3261 3.63866 24.1536 3.70838C24.0111 3.76295 23.8798 3.8357 23.7448 3.9024C18.9784 6.32756 14.2157 8.74969 9.4492 11.1749C9.18669 11.3082 8.92042 11.4416 8.65791 11.578C8.57916 11.6205 8.51166 11.6265 8.4179 11.6053C6.29531 11.0778 4.17272 10.5534 2.05013 10.0259C1.80637 9.9653 1.55886 9.9168 1.3301 9.82586C0.861327 9.64094 0.767573 9.33779 1.04883 8.98008C1.21384 8.77091 1.45385 8.6345 1.72761 8.54355C2.38764 8.31923 3.04767 8.10399 3.7152 7.89482C7.80663 6.61555 11.9018 5.34234 15.997 4.06306C19.9759 2.82623 23.9473 1.58636 27.9225 0.34953C28.1062 0.291932 28.2975 0.249492 28.4925 0.231303C29.115 0.170674 29.6438 0.47382 29.8276 0.986136C29.9438 1.31353 29.9063 1.64093 29.8201 1.9653C29.3326 3.81145 28.8488 5.66064 28.3613 7.50679C27.75 9.83192 27.1387 12.157 26.5274 14.4822C26.1599 15.8857 25.7924 17.2893 25.4174 18.6929C25.3536 18.9263 25.2636 19.1597 25.1399 19.3749C24.8474 19.8782 24.3561 20.051 23.6923 19.9054C23.3435 19.8297 23.0248 19.7023 22.7285 19.5265C20.6322 18.2654 18.5358 17.0074 16.4357 15.7493C16.4095 15.7342 16.3795 15.719 16.342 15.6978L16.3382 15.6917Z" fill="#F1E8C5"/>
</svg>
