<svg width="41" height="19" viewBox="0 0 41 19" fill="none" xmlns="http://www.w3.org/2000/svg">
<path d="M24.2931 4.57938C24.2931 5.61733 24.2708 6.65823 24.308 7.69618C24.3154 7.95861 24.4493 8.24464 24.6203 8.47464C24.9661 8.94053 25.4606 8.97002 25.9886 8.62797C26.7211 8.14733 27.3011 7.56643 27.8291 6.9472C29.2123 5.32836 30.3723 3.61515 31.2758 1.79579C31.2944 1.75451 31.3205 1.71618 31.339 1.67784C31.696 1.01438 31.9191 0.917075 32.8337 0.914126C34.9643 0.90528 37.0948 0.872844 39.2253 0.866946C39.5673 0.866946 39.9243 0.911177 40.2515 0.990793C40.7683 1.11464 40.9951 1.39772 40.8538 1.81054C40.6902 2.29118 40.482 2.77182 40.1957 3.21412C39.2476 4.66784 37.9574 5.93874 36.7229 7.23912C36.0648 7.92912 35.403 8.62207 34.7969 9.33861C34.1351 10.12 34.2057 10.6655 35.0386 11.3378C36.102 12.1989 37.2323 13.0039 38.2585 13.8914C39.0505 14.5785 39.7495 15.3363 40.4411 16.0912C40.6493 16.3182 40.7534 16.6249 40.8129 16.908C40.9356 17.4594 40.6642 17.7926 39.9838 17.9459C39.6417 18.0226 39.2736 18.0491 38.9167 18.055C37.0836 18.0934 35.2468 18.1376 33.4138 18.1376C32.4694 18.1376 31.5882 17.8516 30.904 17.3532C29.9633 16.6721 29.1193 15.9084 28.2269 15.1859C27.844 14.8763 27.4536 14.5755 27.0557 14.2807C26.9219 14.1804 26.7583 14.1008 26.5984 14.033C26.1002 13.8207 25.7395 13.8619 25.3156 14.1598C24.7616 14.549 24.5237 15.068 24.4195 15.6253C24.3303 16.0853 24.3117 16.5541 24.2597 17.02C24.1927 17.6245 23.8172 17.9931 23.0587 18.0226C20.4448 18.1258 17.8198 18.1848 15.3993 17.194C13.1572 16.2769 11.1494 15.1299 9.54689 13.5464C6.12246 10.1672 3.50116 6.42233 1.29629 2.48284C1.17359 2.26169 1.04345 2.04054 0.954218 1.81054C0.779464 1.36233 1.02115 1.03797 1.59746 0.937716C1.86145 0.893485 2.14031 0.875793 2.41174 0.875793C4.13697 0.861049 5.86591 0.855152 7.59114 0.846305C8.51324 0.840408 9.06725 1.13233 9.42048 1.79874C10.3351 3.53554 11.4432 5.19566 12.6069 6.8322C13.0866 7.50451 13.648 8.13553 14.4288 8.61912C14.7746 8.83438 15.1576 8.98771 15.6075 8.86976C15.7488 8.83438 15.8901 8.74002 15.9719 8.64271C16.3214 8.22694 16.4106 7.7463 16.4924 7.26271C16.6969 6.08912 16.7453 4.91553 16.5779 3.739C16.5222 3.35271 16.4218 2.96938 16.3139 2.59195C16.1132 1.899 15.4848 1.56874 14.6668 1.40361C14.4958 1.36823 14.3359 1.30336 14.1723 1.25323C14.2764 1.11759 14.3619 0.964254 14.4958 0.849254C14.8936 0.504254 15.4067 0.318485 15.983 0.247716C18.0801 -0.0117712 20.1808 -0.0088225 22.2853 0.171049C22.501 0.188742 22.7203 0.221177 22.9286 0.265408C23.873 0.465921 24.1593 0.707716 24.2931 1.59233C24.3935 2.26759 24.3117 2.95759 24.3117 3.64169C24.3117 3.95425 24.3117 4.26387 24.3117 4.57643H24.2894L24.2931 4.57938Z" fill="#F1E8C5"/>
</svg>
