<svg width="101" height="92" viewBox="0 0 101 92" fill="none" xmlns="http://www.w3.org/2000/svg">
<path d="M100.499 35.0103C100.191 46.3239 98.3318 57.2685 92.4304 67.1678C84.4851 80.5103 72.3905 87.9348 57.3912 90.4712C34.1701 94.3909 10.826 79.3114 3.74132 56.1771C1.0058 47.2769 -0.177538 38.1308 0.898226 28.831C2.4043 15.7343 12.8238 4.31322 25.6869 1.2389C34.2623 -0.820902 42.2998 -0.14455 49.7226 5.00494C50.0914 5.26626 50.9981 5.20477 51.3823 4.92808C66.6428 -6.17023 92.1231 2.79143 98.593 22.5593C99.93 26.6328 100.576 30.7524 100.499 35.0257V35.0103ZM51.0442 45.9857C47.3866 47.7995 44.1747 49.7825 40.7015 51.0276C36.1987 52.6416 31.8649 50.2744 30.574 46.0472C29.283 41.8661 31.5422 37.931 35.9989 36.2247C37.4742 35.656 38.9496 34.8413 40.1483 33.796C41.5468 32.5663 42.4381 31.0598 42.0232 28.8463C41.5929 26.5252 41.6697 24.0658 41.8234 21.6831C42.0078 18.9009 41.8234 18.1938 39.2877 16.9333C38.3656 16.4875 37.3513 16.134 36.3524 15.9803C27.3467 14.4739 17.8492 21.099 16.5583 30.1222C15.421 38.1 16.6198 45.9703 19.3553 53.5178C24.5343 67.8288 39.6411 77.4514 53.9181 75.2994C67.0117 73.3318 76.6782 66.5529 81.5806 53.856C84.0241 47.5228 84.8232 40.8977 84.8693 34.1649C84.9308 25.0342 79.3676 18.0401 70.4541 16.134C66.9963 15.3962 63.5999 15.5038 60.5417 17.6558C59.3737 18.4705 58.928 19.4082 59.0664 20.9299C59.2969 23.4355 59.4506 26.0333 59.0356 28.4774C58.6053 30.9676 59.4659 32.7046 61.1718 34.1034C62.3398 35.0565 63.7997 35.7328 65.229 36.3016C67.6725 37.2546 69.5166 38.761 70.3773 41.2666C71.3454 44.0796 70.8229 46.6928 68.8558 48.9063C66.8426 51.1813 64.23 52.0421 61.264 51.335C57.2222 50.382 53.6261 48.5066 51.0596 46.0011L51.0442 45.9857ZM57.9906 15.3347C59.4659 14.6583 60.9874 13.736 62.6317 13.2441C73.1589 10.1391 85.9912 18.3936 87.5741 29.5227C88.8189 38.2384 87.5588 46.8004 84.4698 55.0088C78.3379 71.2874 61.0949 81.2635 44.6511 78.0201C33.2326 75.7605 24.1655 69.95 18.5869 59.4512C14.3914 51.5656 13.1466 42.9882 13.0697 34.1649C12.9775 23.3433 19.6934 15.0119 30.3127 12.9828C36.7827 11.7377 42.2998 13.1826 46.0189 19.1929C47.0024 20.7916 48.2165 22.2826 49.5535 23.5892C51.4284 25.4185 53.5185 27.0171 55.7007 28.8771C58.298 18.1477 51.7973 7.3568 41.3009 4.25173C25.856 -0.282895 7.81386 10.5695 4.46362 26.5867C2.69629 34.9642 3.78742 43.311 5.66233 51.5348C11.2256 75.9911 33.4478 91.4396 57.6679 87.3815C71.5606 85.045 82.6563 78.0048 89.8332 65.5999C96.1034 54.7782 97.8092 42.8806 97.1792 30.5987C96.9179 25.3877 95.1659 20.5149 92.0462 16.2877C86.1295 8.29447 78.1381 3.91356 68.2104 3.29869C62.6932 2.96052 57.5603 4.29785 53.1035 7.58737L57.9906 15.35V15.3347ZM44.8048 23.1435C44.5282 27.1093 45.2966 30.5218 46.5567 33.8575C49.2615 40.9284 53.8412 46.0625 61.3716 48.0916C62.3244 48.3529 63.4463 48.3837 64.4144 48.1531C66.3201 47.6919 67.5956 45.9088 67.6878 44.0027C67.7801 41.9583 66.5199 40.3597 64.4759 39.3605C62.4781 38.3767 60.0192 37.562 58.7897 35.9019C56.5306 32.8276 53.4263 31.0137 50.5371 28.8002C48.8466 27.509 47.4481 25.8335 45.9267 24.3271C45.6193 24.035 45.3427 23.7122 44.7894 23.1435H44.8048ZM43.6983 35.5791C41.1011 36.9472 38.5192 38.2999 35.9374 39.6526C33.9549 40.6978 32.956 42.8191 33.4785 44.8789C34.0318 47.0463 35.9989 48.645 38.2426 48.3683C42.1307 47.861 45.3888 45.9549 48.1397 43.5109L43.6983 35.5791Z" fill="black"/>
<path d="M8.07355 48.2912L8.15039 48.3373L8.01208 48.4295C8.44238 48.1528 8.93416 47.9991 9.3491 47.6917C9.56425 47.538 9.76403 47.3843 9.96382 47.2305C10.179 47.0615 10.4249 46.9231 10.6093 46.7233L11.2086 46.1084C11.4853 45.8317 11.4853 45.4628 11.5928 45.1246C11.5467 45.2784 11.6543 45.0324 11.6697 45.017L11.7926 44.7403C12.1615 43.941 12.1768 42.9572 12.0231 42.0964C11.9924 41.9581 11.9617 41.6968 11.8541 41.5892L11.7773 41.543C11.685 41.6199 11.6697 41.6199 11.7158 41.4969C11.7465 41.3586 11.685 41.374 11.5775 41.3125C11.516 41.2817 11.4545 41.251 11.3931 41.2356L11.516 41.2971L11.224 40.9589L11.0703 40.8667C10.8859 40.9128 10.7169 41.0512 10.5478 41.1434C10.348 41.251 10.1482 41.374 9.94845 41.5123C9.59499 41.789 9.24152 42.0657 8.90342 42.3424C8.54996 42.6498 8.22723 43.0187 7.9045 43.3569C7.42809 43.8488 7.41272 44.6481 7.38199 45.3091C7.35125 46.0162 7.38199 46.7387 7.5203 47.4304C7.5664 47.6763 7.62787 47.9223 7.73545 48.1528C7.75082 48.2297 7.79692 48.2912 7.87376 48.3066C7.9506 48.368 8.01208 48.3527 8.07355 48.2604V48.2912Z" fill="#D71D3A"/>
<path d="M7.03052 35.7326C7.03052 35.7326 7.13809 35.7634 7.19957 35.7634C7.32251 35.7941 7.38398 35.7173 7.49156 35.6558C7.6145 35.5635 7.75282 35.4713 7.89113 35.3791L7.75282 35.4713C7.89113 35.3791 8.02944 35.3022 8.16775 35.21C8.27533 35.1331 8.38291 35.0255 8.49048 34.9333C8.70564 34.7642 8.92079 34.5951 9.15131 34.426C9.25889 34.3492 9.38183 34.2723 9.48941 34.1955C9.64309 34.0879 9.76603 33.9649 9.87361 33.7958C9.98119 33.6267 10.0888 33.4576 10.1963 33.2885C10.35 33.058 10.5191 32.8428 10.6266 32.5968C10.7189 32.3662 10.765 32.1203 10.7957 31.8744C10.8879 31.2749 10.9186 30.6446 10.8572 30.0298C10.8111 29.6301 10.7803 29.1689 10.5805 28.8154L10.5344 28.7232C10.473 28.6463 10.4269 28.6309 10.3654 28.6924C10.2885 28.7693 10.2732 28.7232 10.3654 28.5848C10.4576 28.4619 10.4269 28.4004 10.2732 28.3696C10.1656 28.3389 10.0273 28.3696 9.90435 28.3696C9.7814 28.3696 9.65846 28.3696 9.52014 28.3696C9.36646 28.3696 9.18205 28.5541 9.0591 28.6617C8.92079 28.7847 8.81321 28.923 8.69027 29.0613C8.47512 29.3073 8.25996 29.5686 8.06018 29.8299C7.79892 30.1681 7.59914 30.5217 7.39935 30.9059C7.30714 31.0904 7.19957 31.2749 7.10736 31.4747C6.95368 31.7975 6.86147 32.1357 6.76926 32.4892C6.60021 33.1195 6.58484 33.8112 6.64632 34.4568C6.67705 34.7181 6.70779 34.964 6.76926 35.2254C6.8 35.3483 6.87684 35.6865 7.04589 35.7326H7.03052Z" fill="#D71D3A"/>
<path d="M10.259 20.9913C10.3974 20.9913 10.5203 20.9913 10.6433 20.9299C10.7662 20.8684 10.8738 20.7915 10.9813 20.73C11.2426 20.5917 11.5039 20.4533 11.7651 20.3304C12.3645 20.0537 12.9638 19.7309 13.5171 19.362L13.3788 19.4542C13.6861 19.2544 14.0242 19.0853 14.3316 18.8547C14.3931 18.8086 14.4853 18.7625 14.5314 18.701C14.6389 18.578 14.6851 18.3782 14.7465 18.2245C15.0232 17.5481 14.9924 16.7334 14.9309 16.0263C14.8848 15.5037 14.808 14.981 14.4853 14.5506C14.3623 14.3815 14.1625 14.3662 13.9781 14.3815C13.7015 14.4123 13.3941 14.4738 13.1175 14.5506C12.8409 14.6275 12.5796 14.7812 12.3337 14.9042C11.9956 15.0733 11.719 15.2885 11.4424 15.5344C11.1965 15.7496 10.966 15.9648 10.7355 16.1954C10.6279 16.303 10.5049 16.426 10.3974 16.5489C10.2437 16.7334 10.1515 16.964 10.0439 17.1638C9.72117 17.7941 9.7519 18.6241 9.79801 19.3158C9.81338 19.6848 9.84411 20.069 9.93632 20.438C9.98242 20.5763 10.0439 21.0067 10.259 21.0067V20.9913Z" fill="#D71D3A"/>
<path d="M22.6273 12.9365C23.0115 12.8443 23.4111 12.8135 23.7953 12.7213C23.9951 12.6752 24.1949 12.5368 24.3946 12.46C24.6098 12.3678 24.825 12.2755 25.0555 12.1833C25.4704 12.0296 25.8853 11.8912 26.3157 11.7683C26.746 11.6453 27.1763 11.4762 27.5912 11.3071C27.8217 11.2149 28.1137 11.1688 28.2981 10.9997C28.4518 10.8613 28.5133 10.6461 28.6055 10.4617C28.7899 10.062 28.836 9.61623 28.8668 9.17045C28.9129 8.47873 28.8975 7.77164 28.7899 7.07991C28.7284 6.71099 28.6516 6.34208 28.4518 6.0039C28.375 5.86556 28.2981 5.72721 28.1598 5.63498C27.9908 5.52738 27.8832 5.54275 27.6988 5.54275C27.2685 5.54275 26.8228 5.54275 26.4079 5.6811C25.9929 5.81944 25.5626 5.95779 25.1477 6.12687C24.6713 6.31133 24.1949 6.52654 23.7492 6.77248C23.2267 7.07991 22.7964 7.58718 22.3661 8.01758C22.1509 8.24816 22.0894 8.90914 22.0741 9.17045C22.028 9.69309 22.0126 10.2311 22.0433 10.7537C22.0741 11.2303 22.1048 11.7221 22.2278 12.1833C22.2739 12.3216 22.3968 12.9519 22.6273 12.9058V12.9365Z" fill="#D71D3A"/>
<path d="M39.239 11.3842L39.8077 11.4149C39.9921 11.4149 40.115 11.4149 40.2994 11.3534C40.6529 11.2305 40.991 11.1075 41.3445 11.0153L41.8209 10.8769C41.9438 10.8462 42.0668 10.8001 42.159 10.7078C42.2666 10.6156 42.2973 10.4619 42.4202 10.385C42.5739 10.2774 42.7276 10.1852 42.8813 10.0776L43.1118 9.92389C43.2501 9.83166 43.327 9.69331 43.4038 9.55497C43.6343 9.17068 43.6189 8.55581 43.6036 8.12541C43.6036 7.87946 43.5728 7.63351 43.5421 7.38757C43.5114 7.20311 43.4653 6.86493 43.327 6.71122C43.2347 6.60362 43.1425 6.48064 42.9889 6.41916C42.8966 6.38841 42.7891 6.37304 42.6969 6.3423C42.4971 6.28081 42.2819 6.25007 42.0821 6.15784L42.2051 6.2347C42.0668 6.08098 41.9592 5.95801 41.744 5.95801C41.6211 5.95801 41.4982 5.97338 41.3752 5.98875C41.1139 6.01949 40.8681 6.03487 40.6068 6.05024C40.3763 6.05024 40.0997 6.03487 39.8845 6.09635C39.6079 6.17321 39.3466 6.3423 39.0854 6.46527C38.8241 6.58824 38.778 6.95716 38.7165 7.20311C38.609 7.75649 38.5782 8.38672 38.609 8.9401C38.6397 9.49348 38.6551 10.1237 38.8087 10.6771C38.8548 10.8616 38.9471 11.3688 39.2083 11.3842H39.239Z" fill="#D71D3A"/>
<path d="M46.3277 18.301C46.6043 18.301 46.8809 18.2856 47.1575 18.301C47.2959 18.301 47.4034 18.3779 47.5264 18.424C47.6186 18.4701 47.6647 18.4855 47.7723 18.4701C47.8337 18.4701 47.8952 18.4701 47.9567 18.4547C48.095 18.4547 48.2179 18.424 48.3562 18.424C48.4177 18.424 48.5099 18.424 48.5714 18.424C48.6329 18.424 48.6943 18.3471 48.7558 18.3164C49.0324 18.1473 49.3091 17.9782 49.6011 17.8245C49.724 17.7476 49.7547 17.5939 49.7855 17.4556C49.847 17.1789 49.847 16.8714 49.847 16.5794C49.847 16.2873 49.8316 15.9953 49.7394 15.7186C49.7086 15.5802 49.6779 15.4265 49.5396 15.365C49.3398 15.2574 49.1247 15.1652 48.9249 15.0576C48.8173 15.0115 48.7251 14.9654 48.6175 14.9192C48.5099 14.8731 48.4331 14.8885 48.3101 14.9192C48.1257 14.95 47.9259 14.9961 47.7415 15.0422C47.4649 15.1191 47.3266 15.3496 47.0961 15.5034L47.1729 15.4572C46.8809 15.611 46.5889 15.7801 46.2969 15.9645C46.174 16.0414 46.1586 16.1797 46.1279 16.3181C46.0664 16.5794 46.0664 16.8868 46.0664 17.1481C46.0664 17.4094 46.0818 17.7015 46.1586 17.9782C46.174 18.0551 46.2201 18.3164 46.343 18.3164L46.3277 18.301Z" fill="#D71D3A"/>
<path d="M49.1886 36.3784C49.2501 36.5168 49.2962 36.6705 49.4037 36.7935C49.4806 36.8857 49.542 36.9164 49.6496 36.9779C49.8033 37.0548 49.9262 37.1316 50.0953 37.1316C50.4027 37.1316 50.71 37.0855 51.0174 37.0548C51.3247 37.024 51.6014 36.9933 51.8934 36.9318C52.047 36.9011 52.2161 36.8703 52.3851 36.8396C52.5849 36.7935 52.7232 36.6859 52.8923 36.5629L52.7693 36.6397C53.0921 36.5168 53.3687 36.4092 53.6453 36.194L54.0142 35.9019C54.2293 35.7328 54.3369 35.6252 54.4598 35.3946C54.6442 35.0411 54.6442 34.5646 54.6289 34.1803C54.6135 33.796 54.6289 33.2887 54.3984 32.9659C54.1986 32.6892 53.9373 32.6278 53.63 32.5202C53.507 32.474 53.3687 32.4125 53.2304 32.3818C53.1074 32.3511 52.9691 32.3818 52.8462 32.3818H52.6464C52.6464 32.3818 52.5081 32.3511 52.4466 32.3203C52.3237 32.3049 52.17 32.3664 52.0624 32.3818C51.8165 32.4279 51.5706 32.474 51.3401 32.5355C51.1096 32.597 50.8637 32.6892 50.6178 32.7661C50.3719 32.843 50.0799 32.9044 49.8494 33.0274C49.4806 33.2272 49.2501 33.6115 49.1425 34.0112C49.0349 34.4109 49.0195 34.8105 49.0195 35.2102C49.0195 35.6098 49.0503 36.0403 49.2039 36.3938L49.1886 36.3784Z" fill="#D71D3A"/>
<path d="M57.1781 45.186L57.5623 45.3244L57.4701 45.2782C57.593 45.3705 57.6237 45.4473 57.7774 45.4934C57.8543 45.5088 57.9311 45.5088 58.0079 45.5242C58.177 45.5396 58.3614 45.5703 58.5305 45.5857C58.8686 45.601 59.2528 45.4627 59.5755 45.4012C59.6677 45.3858 59.7906 45.3705 59.8675 45.3397C59.9597 45.2936 60.0519 45.2168 60.1287 45.1399L60.6205 44.7402C60.7127 44.6634 60.8203 44.5865 60.9125 44.5097C61.0201 44.4174 61.0662 44.2791 61.1123 44.1561C61.2352 43.864 61.266 43.5566 61.2813 43.2492C61.2813 42.8803 61.2813 42.496 61.2045 42.1271C61.143 41.8196 61.0355 41.4661 60.6974 41.3738C60.5283 41.3277 60.3439 41.297 60.1748 41.2509C60.0058 41.2048 59.8214 41.1279 59.6523 41.1894C59.4833 41.2509 59.2989 41.3124 59.1298 41.3738C58.9608 41.4353 58.7764 41.4968 58.6073 41.5583C58.4075 41.6352 58.2385 41.7735 58.054 41.8965C57.9004 42.0041 57.6852 42.1117 57.5469 42.2347C57.4547 42.3269 57.4086 42.4499 57.301 42.5575L57.0244 42.8188C56.9168 42.9264 56.8861 43.2646 56.8707 43.3875C56.84 43.6488 56.84 43.9102 56.8707 44.1715C56.8707 44.4021 56.9014 44.648 56.9629 44.8786C56.9937 45.0015 57.0244 45.186 57.1627 45.2321L57.1781 45.186Z" fill="#D71D3A"/>
<path d="M38.6888 44.4791C38.781 44.5406 38.8732 44.6021 38.9808 44.6482C39.0116 44.6635 39.0577 44.6943 39.0884 44.7097C39.1499 44.7404 39.1806 44.7865 39.196 44.8634C39.3189 44.971 39.5648 45.0017 39.7185 45.0478C39.8875 45.094 40.0566 45.1401 40.241 45.1862C40.4254 45.2323 40.5637 45.2323 40.7481 45.2323C40.9018 45.2323 41.1016 45.2323 41.2553 45.2016C41.4243 45.1554 41.5934 45.0478 41.7624 44.9864C41.9315 44.9095 42.1005 44.8326 42.2542 44.7558C42.3311 44.7097 42.4079 44.6789 42.4847 44.6174C42.6077 44.5406 42.6692 44.3869 42.746 44.2639C42.9611 43.9103 42.9458 43.3262 42.9304 42.9266C42.9304 42.696 42.8997 42.4654 42.8689 42.2348C42.8536 42.0965 42.8075 41.7122 42.6692 41.6046C42.5769 41.5277 42.4847 41.4048 42.3772 41.374C42.3157 41.3586 42.2235 41.374 42.162 41.374C41.993 41.374 41.8239 41.4048 41.6549 41.4048C41.4858 41.4048 41.3014 41.4048 41.1477 41.4201C40.994 41.4355 40.8096 41.5431 40.6406 41.6046C40.4562 41.6661 40.3025 41.7276 40.1334 41.8198C39.9644 41.912 39.7953 42.0043 39.6263 42.1119C39.4726 42.1887 39.2421 42.2656 39.1191 42.3885L39.0577 42.5269C39.0577 42.5269 38.9808 42.6191 38.9193 42.6499C38.8271 42.7267 38.7349 42.7882 38.6427 42.8651C38.5659 42.9266 38.5659 43.0956 38.5505 43.1725C38.5198 43.3416 38.5198 43.5107 38.5198 43.6798C38.5198 43.8181 38.5198 43.9564 38.5505 44.1102C38.5505 44.1717 38.5966 44.4483 38.6735 44.4945L38.6888 44.4791Z" fill="#D71D3A"/>
<path d="M12.2747 62.2948C12.6128 62.7252 12.3361 62.8328 12.5974 62.7099L12.7357 62.6484C12.8279 62.6023 12.9355 62.5562 13.0277 62.51C13.2582 62.4024 13.458 62.2795 13.6732 62.1411L13.5656 62.218C13.9344 61.972 14.3186 61.7415 14.6875 61.5263C14.7797 61.4801 14.8719 61.4187 14.9641 61.3725C15.1024 61.2957 15.1946 61.1881 15.3022 61.0651C15.4866 60.8499 15.6864 60.6193 15.8708 60.4041C16.0091 60.2504 16.0398 59.8508 16.0552 59.6663C16.0859 59.3281 16.0859 58.9899 16.0706 58.6518C16.0552 58.3443 16.0398 58.0369 15.9476 57.7448C15.9169 57.6372 15.8554 57.2837 15.6864 57.2837C15.5173 57.2837 15.3636 57.2837 15.1946 57.2837C15.1178 57.2837 15.0102 57.2837 14.9333 57.2837C14.8258 57.2991 14.7336 57.3913 14.6567 57.4528C14.334 57.668 14.0113 57.8986 13.6885 58.1291C13.3658 58.3597 13.0584 58.5903 12.7818 58.8823C12.6281 59.0361 12.4898 59.1898 12.3515 59.3435C12.2286 59.4665 12.1671 59.6048 12.1364 59.7585C12.0134 60.2197 11.9827 60.6962 11.998 61.1573L12.0595 60.2043C11.9673 60.6347 11.9212 61.0805 11.9673 61.5109C11.9827 61.7261 11.998 61.9567 12.0903 62.1565L12.1517 62.2641C12.1517 62.2641 12.2439 62.3102 12.2747 62.2641V62.2948Z" fill="#D71D3A"/>
<path d="M22.6172 76.2366C22.8938 76.252 23.0936 76.1444 23.3395 76.0522C23.5854 75.9599 23.8313 75.8831 24.0772 75.7755C24.5536 75.5603 25.0146 75.3297 25.491 75.1452C25.7523 75.0376 25.9982 74.9454 26.2594 74.8532C26.49 74.7763 26.7358 74.7302 26.951 74.6226C27.243 74.4843 27.4889 74.2229 27.7348 74.0385C27.9807 73.854 28.2419 73.6542 28.5032 73.4697C28.6108 73.3929 28.6415 72.9625 28.6569 72.8702C28.6876 72.5936 28.6876 72.3169 28.6569 72.0402C28.6569 71.7942 28.6261 71.5483 28.5647 71.3023C28.5339 71.1794 28.5032 70.9642 28.3495 70.9334C28.0729 70.8719 27.8116 70.8104 27.535 70.7643C27.2584 70.7182 26.9971 70.626 26.7359 70.6875C26.2441 70.8104 25.7523 71.041 25.2759 71.2408C24.7995 71.4407 24.3077 71.6559 23.8774 71.9172C23.3702 72.2246 22.8016 72.6243 22.4482 73.1008C22.3098 73.2853 22.2791 73.6235 22.2637 73.8387C22.233 74.1768 22.233 74.515 22.2484 74.8532C22.2637 75.1606 22.2791 75.468 22.3713 75.7601C22.4021 75.8831 22.4635 76.2059 22.6326 76.2213L22.6172 76.2366Z" fill="#D71D3A"/>
<path d="M36.9483 83.9382C37.0405 83.9843 37.1481 84.0611 37.2403 84.0765C37.3325 84.0919 37.44 84.0611 37.5323 84.0458C37.732 84.015 37.9165 83.9996 38.1162 83.9689C38.316 83.9382 38.4543 83.8459 38.6388 83.7691C38.8385 83.6768 39.0383 83.6 39.2381 83.5231C39.6223 83.3694 39.9911 83.2311 40.3907 83.1081C40.6059 83.0466 40.8057 82.9544 41.0208 82.8621C41.1284 82.816 41.236 82.7853 41.3282 82.7238C41.5126 82.6316 41.5587 82.4625 41.6509 82.2934C41.8814 81.8322 41.8814 81.2481 41.866 80.7562C41.866 80.4949 41.8353 80.2182 41.8046 79.9569C41.7738 79.7417 41.7277 79.4189 41.5741 79.2344C41.4818 79.1268 41.3896 78.9578 41.236 78.9424C41.1437 78.9424 41.0054 78.9885 40.9132 79.0039C40.6981 79.05 40.4983 79.0961 40.2831 79.1883C39.8836 79.3574 39.484 79.5419 39.0998 79.7417C38.7156 79.9415 38.2392 80.126 37.9318 80.4488C37.7474 80.6333 37.563 80.8177 37.3786 81.0175C37.2864 81.1098 37.1788 81.202 37.1019 81.325C37.0097 81.4787 36.9329 81.6478 36.8407 81.8015C36.6563 82.1551 36.6716 82.6316 36.7024 83.0312C36.7024 83.2464 36.7331 83.4616 36.7792 83.6615C36.81 83.7844 36.8407 83.9228 36.9636 83.9843L36.9483 83.9382Z" fill="#D71D3A"/>
<path d="M48.6814 87.1662C48.9273 87.0586 49.1886 86.9817 49.4191 86.8434C49.6957 86.6896 49.9416 86.4898 50.2029 86.3207L50.0799 86.3976C50.833 85.9057 51.6167 85.4599 52.3851 84.9988C52.8154 84.7374 53.1843 84.3531 53.5685 84.0303C53.9834 83.6922 54.4291 83.4001 54.7211 82.939C54.967 82.5547 54.9209 81.8783 54.8901 81.4479C54.8748 81.1558 54.8901 80.4334 54.5674 80.2797C54.4137 80.2028 54.3369 80.1721 54.1525 80.1874C54.0141 80.1874 53.8758 80.2336 53.7529 80.2643C53.4916 80.3258 53.215 80.3719 52.9537 80.4334C52.6925 80.4949 52.4159 80.541 52.17 80.6486C51.9241 80.7562 51.6782 80.9099 51.4477 81.0482C50.9559 81.3249 50.4488 81.617 49.9723 81.9091C49.7111 82.0628 49.4345 82.2165 49.1886 82.401C48.9273 82.5854 48.6968 82.8467 48.4663 83.0619C48.2819 83.231 48.2357 83.8151 48.2204 84.015C48.1743 84.4607 48.1743 84.8912 48.205 85.3369C48.205 85.506 48.3741 87.2584 48.6968 87.12L48.6814 87.1662Z" fill="#D71D3A"/>
<path d="M59.2073 83.9225L59.4071 84.5835H59.4685C59.4685 84.5835 59.5454 84.5835 59.5915 84.5681C59.6991 84.5527 59.7759 84.4913 59.8681 84.4451C60.0372 84.3375 60.2216 84.2453 60.3906 84.1377C60.8056 83.9071 61.159 83.5997 61.5432 83.3076C61.7123 83.1693 61.8813 83.0463 62.0658 82.908C62.2502 82.7696 62.4807 82.6467 62.619 82.4622C62.7266 82.3392 62.7881 82.1855 62.911 82.0625C63.0032 81.9703 63.08 81.8935 63.1723 81.8012C63.2645 81.709 63.3874 81.6168 63.4642 81.5092C63.6026 81.3401 63.6794 81.0941 63.7562 80.8943C63.9407 80.4178 63.9099 79.7875 63.8792 79.311C63.8792 79.0651 63.8331 78.8038 63.787 78.5578C63.7562 78.3887 63.7255 78.112 63.5872 77.9891C63.5411 77.9429 63.4796 77.8815 63.4181 77.8507C63.3413 77.7892 63.2952 77.7739 63.203 77.7892C63.0954 77.8046 62.9725 77.8661 62.8649 77.8968C62.742 77.943 62.619 78.0044 62.4961 77.9891C62.4346 77.9891 62.4039 77.943 62.327 77.9583C62.2655 77.9583 62.2041 78.0352 62.158 78.0506C61.6662 78.3426 61.2051 78.6962 60.7441 79.0497C60.5136 79.2188 60.3138 79.4033 60.114 79.6185C59.9142 79.849 59.7144 80.0796 59.5147 80.3102C59.3917 80.4485 59.3149 80.6022 59.2227 80.756C59.1612 80.8789 59.069 81.0173 59.0229 81.1402C58.9307 81.4169 58.8999 81.7244 58.8846 82.0318C58.8538 82.4622 58.8385 82.8926 58.8846 83.3076C58.8999 83.4767 58.9153 83.6458 58.9921 83.8149L59.0536 83.9225C59.0536 83.9225 59.1305 83.9686 59.1766 83.9225H59.2073Z" fill="#D71D3A"/>
<path d="M72.1782 78.8499C72.6854 78.0198 73.2386 77.2205 73.9763 76.5749C74.3451 76.252 74.6525 75.8678 75.006 75.5296C75.2211 75.3144 75.3902 75.0838 75.5746 74.8379C75.6668 74.7303 75.7436 74.6073 75.8358 74.4997C76.0049 74.2691 76.0664 74.0693 76.1432 73.7926C76.2661 73.3468 76.2815 72.8703 76.2508 72.4091C76.2508 72.1939 76.22 71.9787 76.1739 71.7635C76.1432 71.6252 76.1125 71.3639 76.0049 71.2716L75.8819 71.164C75.8819 71.164 75.759 71.0872 75.6975 71.164C74.7754 71.9173 74.1454 73.0394 73.6382 74.1C73.085 75.2529 72.5163 76.3904 72.0399 77.574C71.9323 77.82 71.9631 78.1735 71.9938 78.4348C71.9938 78.4809 72.1014 78.9728 72.1782 78.8345V78.8499Z" fill="#D71D3A"/>
<path d="M81.75 70.0575C82.2418 69.75 82.7336 69.4426 83.2254 69.1198C83.7171 68.797 84.1628 68.3512 84.6085 67.9362C84.8236 67.7363 85.0388 67.5365 85.2386 67.352C85.3615 67.2444 85.4845 67.1368 85.592 67.0139C85.7457 66.8448 85.8072 66.645 85.8994 66.4451C86.0531 66.1223 86.3143 65.8303 86.5141 65.5382C86.7446 65.2 86.9598 64.8618 87.1442 64.4929C87.3286 64.124 87.2979 63.6782 87.2825 63.3093C87.2825 63.2171 87.2057 62.3102 87.0213 62.3716C86.5141 62.5561 86.0838 62.9404 85.6381 63.2325L85.7303 63.171C85.6228 63.1863 85.5459 63.1249 85.4537 63.171C85.3615 63.2171 85.2847 63.3093 85.2078 63.3862C85.0388 63.5553 84.8851 63.709 84.7161 63.8781C84.378 64.2162 84.0245 64.539 83.6864 64.8618C82.9641 65.5382 82.2879 66.2453 81.581 66.937C81.4427 67.0754 81.4119 67.5211 81.3966 67.6749C81.3658 68.013 81.3658 68.3512 81.3812 68.6894C81.3966 68.9968 81.4119 69.3042 81.5041 69.5963C81.5195 69.6578 81.6424 70.1343 81.7654 70.0575H81.75Z" fill="#D71D3A"/>
<path d="M87.0687 56.5458L89.4353 55.4083C89.8195 55.2238 90.2191 55.0548 90.6033 54.8395L91.1873 54.5167C91.2949 54.4553 91.4639 54.3938 91.5561 54.3015C91.633 54.1786 91.6945 54.0402 91.7406 53.9019L91.8635 53.5791C92.094 52.9642 92.0633 52.1956 92.0172 51.5654C92.0018 51.2426 91.9711 50.9352 91.9096 50.6124C91.8635 50.3972 91.8174 50.0743 91.6637 49.8899C91.5869 49.813 91.5254 49.7362 91.4486 49.6593C91.3564 49.5517 91.2641 49.5517 91.1719 49.6593C89.6966 50.6738 88.3135 51.7806 86.8996 52.872C86.7306 52.995 86.6845 53.5944 86.6845 53.7328C86.6537 54.1325 86.6384 54.5167 86.6691 54.9164C86.6691 55.0548 86.8381 56.6534 87.1148 56.5151L87.0687 56.5458Z" fill="#D71D3A"/>
<path d="M90.6608 39.0375C90.8452 39.1451 91.045 39.2527 91.2294 39.3603L91.1065 39.2988L91.1526 39.3449L91.045 39.1451C91.1218 39.2988 91.1679 39.4218 91.3062 39.514C91.3677 39.5601 91.4292 39.5755 91.506 39.5909C91.6136 39.6216 91.7519 39.6677 91.8595 39.637C92.0746 39.5909 92.2898 39.4679 92.4896 39.3757C92.7201 39.2681 92.9967 39.1297 93.1965 38.9453C93.3963 38.7608 93.5346 38.561 93.6883 38.3611C93.7651 38.2535 93.842 38.1459 93.9188 38.0383C94.2108 37.5772 94.2723 37.0238 94.3184 36.4858C94.4106 35.5789 94.4106 34.6566 94.2415 33.765C94.1954 33.5191 94.1493 33.2885 94.0264 33.0733C93.9803 32.9965 93.9342 32.9042 93.8266 32.8889L93.7037 32.9657L93.5039 32.7812C93.5039 32.7812 93.4424 32.8581 93.427 32.8735C93.2887 33.0426 93.1197 33.2117 92.9506 33.35C92.8584 33.4269 92.7662 33.5037 92.674 33.5806C92.5818 33.6882 92.4896 33.7804 92.3974 33.888C92.1822 34.1032 91.9517 34.3184 91.7058 34.5029C91.6443 34.549 91.5829 34.5797 91.5368 34.6412C91.4753 34.7027 91.4292 34.7796 91.3677 34.8564C91.1833 35.087 91.0142 35.2715 90.9374 35.5635L91.045 35.3483C90.922 35.5789 90.7376 35.7941 90.5686 35.9939C90.4456 36.1476 90.4303 36.3782 90.3995 36.5627C90.3534 36.8855 90.3381 37.2083 90.3534 37.5311C90.3534 37.7924 90.3842 38.0691 90.4149 38.3304C90.4303 38.4841 90.461 38.6378 90.5225 38.7762C90.5378 38.8838 90.5839 38.976 90.6454 39.0529L90.6608 39.0375Z" fill="#D71D3A"/>
<path d="M87.2634 23.4509C87.3556 23.7276 87.4171 24.0196 87.5554 24.281C87.6476 24.45 87.7859 24.4654 87.955 24.4962C88.1855 24.5423 88.416 24.573 88.6466 24.6038C89.0922 24.6499 89.5379 24.4962 89.9528 24.3271C90.1526 24.2502 90.3678 24.158 90.5522 24.0504C90.6905 23.9735 90.8135 23.912 90.8903 23.7737C90.9825 23.6354 91.0286 23.497 91.1516 23.3894C91.3513 23.2049 91.5357 23.0051 91.7048 22.7899C91.9353 22.5132 92.0736 22.2519 92.1966 21.9137C92.3656 21.4987 92.3349 20.9146 92.2888 20.4842C92.2734 20.2536 92.2581 19.6541 91.9968 19.5619C91.8892 19.5158 91.8277 19.5004 91.7202 19.5311C91.628 19.5619 91.5357 19.608 91.4282 19.6387C91.2284 19.7002 91.0286 19.7617 90.8135 19.7924L90.921 19.8539C90.7827 19.7617 90.6598 19.6234 90.4754 19.6848C90.337 19.731 90.2141 19.7924 90.0758 19.8386C89.8145 19.9308 89.5533 19.9923 89.2766 20.0384C89 20.0845 88.7234 20.1306 88.4621 20.1921C88.2009 20.2536 87.8935 20.3151 87.6015 20.3458C87.4786 20.3919 87.4017 20.4842 87.3864 20.6379C87.2634 20.9453 87.1712 21.2989 87.1405 21.6217C87.079 22.2058 87.0636 22.8821 87.2327 23.4355L87.2634 23.4509Z" fill="#D71D3A"/>
<path d="M77.7519 14.1664L77.8133 14.2894L77.7365 13.9512C77.7826 14.2279 77.8133 14.5046 77.9209 14.7659C77.9824 14.935 78.0592 14.9504 78.2129 15.0118C78.3973 15.0887 78.5049 15.1041 78.7047 15.0887C78.9967 15.0887 79.2887 15.0426 79.5807 14.9965C80.1954 14.8889 80.7486 14.6737 81.2865 14.3662C81.4248 14.2894 81.5785 14.1971 81.7168 14.1049C81.8551 14.0127 81.9627 13.859 82.0703 13.736C82.2086 13.5823 82.3623 13.4286 82.4391 13.2441C82.6696 12.7676 82.7004 12.0912 82.685 11.584C82.685 11.2458 82.6543 10.8923 82.5621 10.5694C82.5313 10.4618 82.4852 10.1544 82.3315 10.1544C82.2547 10.2466 82.224 10.2313 82.2086 10.1083C82.2086 10.0161 82.1625 9.98533 82.101 10.0314C82.0549 10.0314 81.9781 10.0929 81.932 10.1083C81.809 10.1544 81.6861 10.2005 81.5631 10.2466C81.3941 10.3235 81.2404 10.4618 81.0714 10.5694L81.1789 10.4926C80.641 10.8308 80.0571 11.1228 79.4731 11.3688C79.1964 11.4917 78.9045 11.584 78.5971 11.6608C78.428 11.7069 78.3051 11.7531 78.1514 11.8453C78.0438 11.9221 77.9516 11.9529 77.8748 12.0605C77.7211 12.2911 77.7365 12.6907 77.6904 12.9674L77.7519 12.6139C77.6596 12.8444 77.6289 13.075 77.6289 13.3363C77.6289 13.5977 77.6289 13.9051 77.7365 14.1357L77.7519 14.1664Z" fill="#D71D3A"/>
<path d="M62.6616 9.64707C62.9997 9.72393 63.3532 9.77004 63.6913 9.83153C63.8603 9.86227 64.014 9.93913 64.1831 9.98524C64.3521 10.0314 64.5519 10.016 64.7363 10.0314C65.3818 10.0775 65.9965 10.0314 66.642 9.92376C67.2874 9.81615 67.8868 9.67781 68.4861 9.49335C68.6552 9.44724 68.855 9.40112 69.0086 9.30889C69.147 9.21666 69.2392 9.07832 69.3467 8.95534C69.608 8.66328 70.0076 8.44808 70.3303 8.21751C70.653 7.98693 70.4993 5.7273 70.192 5.80416C69.9154 5.86565 69.5926 5.98862 69.316 5.97325C69.1162 5.97325 68.9933 5.86565 68.7935 5.89639C68.6705 5.92714 68.5322 6.01936 68.4093 6.06548C67.7792 6.3268 67.1491 6.55737 66.5037 6.74183C65.8582 6.92629 65.2435 7.11075 64.6134 7.31058C64.4597 7.3567 64.2906 7.38744 64.137 7.44893C63.9679 7.51041 63.8296 7.61801 63.6606 7.66413C63.3225 7.77173 62.969 7.83322 62.6309 7.8947C62.3389 7.95619 62.385 9.57021 62.677 9.6317L62.6616 9.64707Z" fill="#D71D3A"/>
</svg>
