<svg width="101" height="105" viewBox="0 0 101 105" fill="none" xmlns="http://www.w3.org/2000/svg">
<path d="M-0.00390625 53.9627C4.25645 52.9781 8.50365 51.9661 12.7772 51.0225C24.6246 48.3968 36.4721 45.7711 48.3459 43.2138C50.029 42.8446 51.3702 42.1471 52.5931 40.848C57.5503 35.5693 62.6128 30.3999 67.6358 25.1759C68.6614 24.1092 70.1079 23.2477 69.3058 21.2921C69.1874 21.0049 69.5161 20.5399 69.6608 20.0476C67.1361 18.6938 65.4267 16.7382 66.0316 13.5244C66.4392 11.3501 67.8462 10.0509 69.8975 9.54489C72.5931 8.8748 74.4997 10.0782 75.8409 12.6219L77.2216 10.7894C74.7364 9.50387 73.3689 7.53461 73.7108 4.67644C73.9606 2.55675 75.0257 0.833641 77.0901 0.245597C79.5622 -0.465525 81.666 0.341325 83.336 2.6935C84.9008 0.792615 86.0973 1.76357 87.3991 3.15847C91.1467 7.16537 94.9862 11.0765 98.7732 15.0287C100.483 16.8202 100.469 17.4493 98.6286 19.0083C93.3952 23.4665 88.1355 27.87 82.9152 32.3555C81.6923 33.4085 80.5615 33.9556 78.9967 32.1094C74.6444 36.7727 70.4234 41.354 66.1368 45.8532C65.2032 46.8241 64.2038 48.8071 62.6259 47.0429C61.1795 45.4292 63.0467 44.4856 63.9277 43.542C68.3064 38.9334 72.7772 34.4068 77.169 29.7982C78.4576 28.4307 79.6411 27.5965 81.0875 29.5794C86.1105 25.3127 90.9889 21.1827 95.7094 17.1895C92.1854 13.4971 88.7009 9.85943 85.1243 6.12604C83.4543 8.21838 81.6134 10.5295 79.7594 12.8543C77.9054 15.1928 76.0776 17.5313 74.2104 19.8562C73.5004 20.7451 72.7509 21.4562 73.3426 22.8921C73.5398 23.3571 72.7509 24.4785 72.1854 25.0665C66.8468 30.6324 61.2716 35.9795 56.1828 41.7642C53.4346 44.8959 50.292 46.1677 46.4787 46.9882C32.5405 49.9832 18.6417 53.2379 4.74297 56.4106C4.49313 56.4653 4.25645 56.561 3.50694 56.7935C8.16177 61.8398 12.5931 66.6672 17.0507 71.5083C17.3136 71.2074 17.4583 71.1254 17.4583 71.0297C17.5109 66.4621 19.812 65.1082 23.6121 67.5424C27.6095 70.0997 30.8837 73.5186 33.6187 77.4708C34.6312 78.9341 35.4859 80.5614 34.5655 82.4623C33.6319 84.3632 31.9356 84.2948 29.8712 84.6367L44.743 100.104C44.4011 99.7481 46.0316 95.0164 46.2025 94.3463L47.7278 88.3701L50.7522 76.4998C52.672 68.9373 54.7495 61.4022 56.2223 53.7302C56.3537 53.0328 56.5115 52.3217 56.8797 51.7336C57.2479 51.1456 57.8922 50.6806 58.576 50.7216C58.9705 50.749 59.286 50.9678 59.549 51.2413C60.8376 52.5541 59.5359 55.1525 59.1545 56.6294C58.6023 58.8175 58.05 61.0056 57.5109 63.1936C56.4063 67.5698 55.3018 71.9459 54.1973 76.3084C51.9882 85.0607 49.7528 93.7993 47.5438 102.538C46.8337 105.355 45.7555 105.752 43.7962 103.646C36.643 95.9737 29.5687 88.247 22.4682 80.5341C22.192 80.2332 21.9948 79.8366 21.6923 79.6042C13.7502 73.587 7.41227 65.8467 0.693004 58.5166C0.522063 58.3252 0.259079 58.2294 0.0486907 58.0927V53.949L-0.00390625 53.9627ZM20.785 69.6895C20.5352 75.1186 27.123 81.4777 31.7121 80.6161C28.8981 76.0759 25.3873 72.575 20.785 69.6895ZM73.6845 14.5775C72.4484 13.6338 71.6858 12.6082 71.0546 12.6902C70.3708 12.786 69.4241 13.8253 69.2795 14.5911C69.0559 15.7399 69.7923 16.9023 71.1072 16.6561C71.8699 16.5057 72.4879 15.5894 73.6845 14.5775ZM81.3768 4.9773C80.1933 4.2525 79.5227 3.60975 78.7601 3.44565C77.5635 3.19949 76.6956 4.07472 76.906 5.20978C77.077 6.07133 77.9974 6.78246 78.5891 7.56196L81.3768 4.96362V4.9773Z" fill="black"/>
<path d="M64.1629 40.0415C63.0847 40.3971 62.0722 40.3424 61.0597 40.9167C60.1524 41.4364 59.324 42.1338 58.5482 42.845C56.7204 44.5134 55.182 46.6331 53.867 48.7391C50.8164 53.6349 48.752 59.064 46.3851 64.3291C45.3595 66.6129 44.0446 69.0608 41.7829 70.2095C39.9683 71.1258 37.8644 70.8796 36.063 70.0728C34.038 69.1565 32.276 67.4197 31.2767 65.3684C30.5534 63.8915 30.5534 62.7838 31.4081 61.3752C32.0393 60.3359 32.9729 59.4469 34.0248 58.8999C35.0768 58.3529 36.3391 58.1615 37.5094 58.4486C38.18 58.6127 38.7849 58.9273 39.3108 59.3786C39.4555 59.488 40.6652 60.8555 40.5337 60.9102C40.2839 61.0059 41.1123 59.8025 40.56 60.3495C40.3102 60.582 40.1524 61.1974 39.9157 61.4983C39.5475 61.9769 39.061 62.3735 38.5219 62.6196C37.9828 62.8658 37.4436 62.9479 36.8651 62.8521C36.6547 62.8111 36.4443 62.7564 36.2602 62.6744C34.7612 61.9906 35.9315 61.2384 35.2214 63.9598C35.445 63.0846 35.4581 62.1137 35.3135 61.2111C35.2609 60.9239 35.0242 59.7341 34.7218 60.5136C33.8408 62.7564 34.301 66.9548 37.1807 67.283C40.2707 67.6385 41.5199 63.8368 41.5725 61.3342C41.6383 58.2025 40.6784 55.2896 37.6146 54.2229C34.5508 53.1562 31.7763 55.0982 30.5403 57.8606C29.1596 60.9376 29.37 65.0402 30.3694 68.1992C31.2767 71.0164 33.249 73.1771 35.9578 74.1891C38.6665 75.201 41.5594 74.6677 43.6895 72.6848C46.2273 70.3189 47.4239 66.5582 48.8309 63.4402C50.7244 59.2828 52.802 55.2349 55.4318 51.5152C56.6021 49.8741 57.9039 48.3562 59.2582 46.8792C60.034 46.0313 60.8624 45.2518 61.6383 44.4176C62.5192 43.4877 63.2293 42.4074 64.2024 41.5732C64.3864 41.409 64.2812 40.0005 64.1235 40.0552L64.1629 40.0415Z" fill="#D71D3A"/>
<path d="M83.9761 14.0583L85.8696 16.26C86.172 16.6156 86.4745 16.9575 86.7901 17.2994L87.2634 17.7917C87.3423 17.8737 87.4081 17.9695 87.5001 18.0378C87.5922 18.1062 87.6711 18.1062 87.7762 18.0925C87.9735 18.0652 87.9866 17.3677 87.9866 17.2583C87.9866 16.8617 88.0129 16.3694 87.8551 16.0002C87.7762 15.8361 87.7236 15.6583 87.6185 15.5079C87.5527 15.4121 87.4607 15.3301 87.3818 15.248L86.9084 14.7557C86.606 14.4412 86.2772 14.1403 85.9616 13.8395L84.055 12.1027C83.8578 11.9112 83.8052 12.7454 83.8052 12.8138C83.8052 13.0736 83.8052 13.3335 83.8446 13.5933C83.8709 13.7437 83.8841 13.9352 83.9893 14.0583H83.9761Z" fill="#D71D3A"/>
<path d="M79.9956 17.1079C80.5873 18.3934 81.2185 19.6652 82.0206 20.8276C82.3887 21.3609 82.7832 21.8943 83.1777 22.4003C83.3618 22.6328 83.559 22.8379 83.7826 23.0293C84.0061 23.2208 84.2428 23.508 84.5189 23.6037C84.8214 23.7131 84.8608 22.0584 84.8608 21.9763C84.8608 21.5797 84.8608 21.1832 84.7819 20.7866C84.7293 20.4994 84.6899 20.1849 84.5321 19.9387L84.6899 20.3079C84.6767 20.2122 84.6373 20.1165 84.5847 20.0207C84.5321 19.9113 84.4795 19.843 84.4006 19.7472C84.2954 19.6378 84.1902 19.5284 84.085 19.4054C83.8746 19.1729 83.6774 18.913 83.4407 18.7079C83.0199 18.325 82.6123 17.9284 82.2178 17.5045C81.8496 17.1079 81.4814 16.7113 81.1396 16.301C80.9686 16.0959 80.7977 15.9318 80.6267 15.7403C80.4427 15.5489 80.2849 15.289 80.1271 15.0702C79.9693 14.8514 79.8772 15.6993 79.8772 15.713C79.8509 16.1232 79.8246 16.6839 80.0087 17.0805L79.9956 17.1079Z" fill="#D71D3A"/>
<path d="M76.6685 20.8686C77.063 22.0857 77.4706 23.2618 78.1149 24.3558C78.3911 24.8345 78.6803 25.3131 79.0222 25.7507C79.18 25.9559 79.351 26.1473 79.5219 26.3388C79.6008 26.4345 79.6928 26.5439 79.7849 26.626C79.8901 26.708 79.9821 26.708 80.1005 26.6943C80.3371 26.667 80.3503 25.8328 80.3503 25.7097C80.3503 25.2311 80.3766 24.643 80.1925 24.2054C80.1136 24.014 80.0347 23.8088 79.9164 23.6447C79.8375 23.5353 79.7454 23.4396 79.6534 23.3439C79.4824 23.1524 79.3115 22.9473 79.1537 22.7558C78.8513 22.3729 78.5225 22.0173 78.2333 21.6208C77.9703 21.2652 77.7204 20.896 77.4443 20.5404C77.3786 20.4583 77.326 20.3763 77.2602 20.2942C77.1945 20.2122 77.1419 20.1712 77.0761 20.1165C76.9446 19.9797 76.8394 19.7335 76.7474 19.5694C76.6554 19.4053 76.5765 19.9934 76.5765 19.9934C76.5633 20.2942 76.5765 20.6088 76.6554 20.896L76.6685 20.8686Z" fill="#D71D3A"/>
</svg>
