<svg width="232" height="25" viewBox="0 0 232 25" fill="none" xmlns="http://www.w3.org/2000/svg">
<path d="M7.53983 14.686L10.7681 18.9956L6.69137 24.523L0.078125 24.5279L7.53983 14.686ZM7.69947 9.96876L0.831982 0.944329L7.44523 0.939448L10.8775 5.62005L7.69947 9.96876ZM26.2443 24.5108L19.6311 24.5157L10.4754 12.2236L18.8329 0.932127L25.4461 0.927246L16.8847 12.2529L26.2443 24.5108Z" fill="#F1E8C5"/>
<path d="M35.3367 14.6694L38.565 18.979L34.4882 24.5064L27.875 24.5113L35.3337 14.6669L35.3367 14.6694ZM35.4963 9.95216L28.6289 0.925286L35.2421 0.920405L38.6744 5.60101L35.4963 9.94972V9.95216ZM54.0412 24.4942L47.428 24.4991L38.2723 12.207L46.6298 0.913084L53.243 0.908203L44.6816 12.2339L54.0412 24.4918V24.4942Z" fill="#F1E8C5"/>
<path d="M87.7714 8.63436C87.7743 12.9465 84.2268 16.3849 77.8618 16.3898H72.7179L72.7268 24.4796L67.299 24.4845L67.2872 12.1192L77.7377 12.1119C80.4723 12.1119 82.184 10.6599 82.184 8.63924C82.184 6.61863 80.4663 5.20322 77.7318 5.20567L67.2812 5.21299V0.89844L77.8471 0.891118C84.2149 0.886238 87.7684 4.32226 87.7743 8.63436H87.7714Z" fill="#F1E8C5"/>
<path d="M100.645 16.3747H96.6866L96.6955 24.4645L91.2677 24.4693L91.2559 12.1041L101.706 12.0967C104.4 12.0967 106.114 10.6447 106.111 8.62411C106.111 6.60349 104.394 5.18809 101.701 5.19053L91.25 5.19785V0.883303L101.816 0.875982C108.184 0.871101 111.737 4.30712 111.743 8.61923C111.746 11.7868 109.872 14.4834 106.321 15.6987L112.453 24.4547L106.33 24.4596L100.648 16.3771L100.645 16.3747Z" fill="#F1E8C5"/>
<path d="M141.775 12.673C141.781 19.445 136.155 24.7064 127.951 24.7113C119.747 24.7162 114.068 19.4646 114.063 12.6926C114.057 5.92058 119.724 0.661621 127.928 0.6543C136.131 0.64942 141.769 5.90106 141.778 12.673H141.775ZM136.223 12.6779C136.22 8.36582 133.113 5.13235 127.931 5.13723C122.707 5.13967 119.609 8.37802 119.611 12.6901C119.614 17.0022 122.722 20.2357 127.945 20.2308C133.128 20.2284 136.229 16.99 136.223 12.6779ZM130.671 12.6828C130.671 13.9298 129.45 14.9743 127.939 14.9767C126.387 14.9767 125.163 13.9347 125.16 12.6877C125.16 11.4407 126.381 10.3962 127.933 10.3938C129.444 10.3938 130.668 11.4358 130.671 12.6828Z" fill="#F1E8C5"/>
<path d="M156.709 7.94615L156.718 16.3703C156.724 22.3345 153.381 24.6943 148.399 24.6992C145.132 24.6992 142.723 23.457 141.375 22.1759L144.556 19.0058C145.047 19.4768 146.191 20.3871 148.068 20.3163C149.945 20.248 151.29 19.0668 151.29 16.8778L151.282 7.94859L156.709 7.94371V7.94615ZM156.703 0.837402V4.64436L151.279 4.64924V0.842283L156.703 0.837402Z" fill="#F1E8C5"/>
<path d="M179.937 5.13535L161.203 5.14755V0.835444L179.934 0.823242V5.13535H179.937ZM178.687 14.7723L161.218 14.7845V10.5041L178.684 10.4919V14.7723H178.687ZM180.206 20.1289V24.4093L161.23 24.4215V20.1411L180.206 20.1289Z" fill="#F1E8C5"/>
<path d="M203.382 17.112L208.322 19.1302C205.998 22.5003 201.756 24.66 196.491 24.6649C188.287 24.6698 182.65 19.4182 182.641 12.6462C182.632 5.8742 188.264 0.612793 196.467 0.607912C201.732 0.605472 205.981 2.79203 208.31 6.12555L203.373 8.15105C201.984 6.26465 199.616 5.0884 196.473 5.0884C191.291 5.09084 188.19 8.32919 188.196 12.6413C188.198 16.9534 191.306 20.1869 196.488 20.182C199.63 20.182 201.996 18.9984 203.382 17.112ZM196.6 10.4108C198.152 10.4108 199.376 11.4187 199.379 12.6657C199.379 13.9469 198.158 14.9572 196.606 14.9596C195.054 14.9621 193.83 13.9518 193.827 12.6706C193.824 11.3894 195.09 10.4133 196.6 10.4108Z" fill="#F1E8C5"/>
<path d="M231.515 0.786133V5.09824L210.703 5.11288V0.800775L231.515 0.786133ZM218.422 8.61235L223.85 8.60747L223.865 24.377L218.437 24.3819L218.422 8.61235Z" fill="#F1E8C5"/>
</svg>
