<svg width="41" height="19" viewBox="0 0 41 19" fill="none" xmlns="http://www.w3.org/2000/svg">
<path d="M24.2935 4.57985H24.3158C24.3158 4.26729 24.3158 3.95767 24.3158 3.64511C24.3158 2.961 24.3976 2.26806 24.2972 1.59575C24.1634 0.711134 23.8771 0.469339 22.9326 0.268826C22.7207 0.224595 22.5051 0.192159 22.2894 0.174467C20.1849 -0.00540452 18.0804 -0.00835323 15.9871 0.251134C15.4108 0.321903 14.8977 0.507672 14.4999 0.852672C14.366 0.967672 14.2842 1.12101 14.1764 1.25665C14.34 1.30677 14.4999 1.37165 14.6709 1.40703C15.4889 1.57216 16.1173 1.90241 16.318 2.59536C16.4296 2.9728 16.53 3.35613 16.582 3.74241C16.7493 4.91895 16.701 6.09549 16.4965 7.26613C16.411 7.74972 16.3255 8.23036 15.976 8.64613C15.8942 8.74344 15.7492 8.83485 15.6116 8.87318C15.158 8.99113 14.7787 8.8378 14.4329 8.62254C13.6521 8.13895 13.0907 7.50793 12.611 6.83562C11.4472 5.19908 10.3392 3.53895 9.42456 1.80216C9.07134 1.1328 8.51361 0.843826 7.59523 0.849723C5.87 0.858569 4.14105 0.864467 2.41582 0.87921C2.1444 0.87921 1.86925 0.896903 1.60155 0.941133C1.01779 1.03844 0.779832 1.3628 0.954586 1.811C1.04382 2.041 1.17024 2.26216 1.29666 2.48331C3.50525 6.4228 6.12283 10.1647 9.54354 13.541C11.1461 15.1245 13.1539 16.2715 15.3959 17.1886C17.8202 18.1793 20.4415 18.1233 23.0553 18.0171C23.8139 17.9877 24.1894 17.6191 24.2563 17.0146C24.3084 16.5487 24.327 16.0798 24.4162 15.6198C24.524 15.0655 24.7583 14.5465 25.3123 14.1543C25.7361 13.8565 26.0968 13.8152 26.595 14.0275C26.7586 14.0954 26.9185 14.1779 27.0524 14.2752C27.4502 14.5701 27.8443 14.8709 28.2236 15.1805C29.116 15.9029 29.9637 16.6666 30.9007 17.3478C31.5885 17.8461 32.466 18.1321 33.4104 18.1321C35.2472 18.1321 37.0803 18.0879 38.9133 18.0496C39.2703 18.0437 39.6384 18.0171 39.9804 17.9405C40.6608 17.7901 40.9323 17.4569 40.8096 16.9025C40.7464 16.6195 40.6423 16.3098 40.4378 16.0857C39.7425 15.3309 39.0472 14.573 38.2552 13.886C37.229 13.0014 36.0949 12.1934 35.0353 11.3324C34.2061 10.6601 34.1318 10.1146 34.7936 9.33318C35.4034 8.61369 36.0615 7.92369 36.7196 7.23369C37.954 5.93331 39.2442 4.65946 40.1924 3.2087C40.4787 2.76934 40.6869 2.28575 40.8505 1.80511C40.9918 1.39229 40.765 1.10921 40.2481 0.985364C39.9209 0.905749 39.564 0.861518 39.2219 0.861518C37.0914 0.867415 34.9609 0.899851 32.8304 0.908698C31.9194 0.911646 31.6926 1.00895 31.3357 1.67242C31.3134 1.7137 31.2911 1.75203 31.2725 1.79036C30.369 3.60972 29.2089 5.32293 27.8257 6.94177C27.2978 7.561 26.7177 8.1419 25.9853 8.62254C25.4573 8.96754 24.9628 8.93805 24.617 8.46921C24.4459 8.23921 24.3121 7.95318 24.3046 7.69075C24.2675 6.6528 24.2898 5.6119 24.2898 4.57395L24.2935 4.57985Z" fill="#F1E8C5"/>
<path d="M24.2931 4.57938C24.2931 5.61733 24.2708 6.65823 24.308 7.69618C24.3154 7.95861 24.4493 8.24464 24.6203 8.47464C24.9661 8.94053 25.4606 8.97002 25.9886 8.62797C26.7211 8.14733 27.3011 7.56643 27.8291 6.9472C29.2123 5.32836 30.3723 3.61515 31.2758 1.79579C31.2944 1.75451 31.3205 1.71618 31.339 1.67784C31.696 1.01438 31.9191 0.917075 32.8337 0.914126C34.9643 0.90528 37.0948 0.872844 39.2253 0.866946C39.5673 0.866946 39.9243 0.911177 40.2515 0.990793C40.7683 1.11464 40.9951 1.39772 40.8538 1.81054C40.6902 2.29118 40.482 2.77182 40.1957 3.21412C39.2476 4.66784 37.9574 5.93874 36.7229 7.23912C36.0648 7.92912 35.403 8.62207 34.7969 9.33861C34.1351 10.12 34.2057 10.6655 35.0386 11.3378C36.102 12.1989 37.2323 13.0039 38.2585 13.8914C39.0505 14.5785 39.7495 15.3363 40.4411 16.0912C40.6493 16.3182 40.7534 16.6249 40.8129 16.908C40.9356 17.4594 40.6642 17.7926 39.9838 17.9459C39.6417 18.0226 39.2736 18.0491 38.9167 18.055C37.0836 18.0934 35.2468 18.1376 33.4138 18.1376C32.4694 18.1376 31.5882 17.8516 30.904 17.3532C29.9633 16.6721 29.1193 15.9084 28.2269 15.1859C27.844 14.8763 27.4536 14.5755 27.0557 14.2807C26.9219 14.1804 26.7583 14.1008 26.5984 14.033C26.1002 13.8207 25.7395 13.8619 25.3156 14.1598C24.7616 14.549 24.5237 15.068 24.4195 15.6253C24.3303 16.0853 24.3117 16.5541 24.2597 17.02C24.1927 17.6245 23.8172 17.9931 23.0587 18.0226C20.4448 18.1258 17.8198 18.1848 15.3993 17.194C13.1572 16.2769 11.1494 15.1299 9.54689 13.5464C6.12246 10.1672 3.50116 6.42233 1.29629 2.48284C1.17359 2.26169 1.04345 2.04054 0.954218 1.81054C0.779464 1.36233 1.02115 1.03797 1.59746 0.937716C1.86145 0.893485 2.14031 0.875793 2.41174 0.875793C4.13697 0.861049 5.86591 0.855152 7.59114 0.846305C8.51324 0.840408 9.06725 1.13233 9.42048 1.79874C10.3351 3.53554 11.4432 5.19566 12.6069 6.8322C13.0866 7.50451 13.648 8.13553 14.4288 8.61912C14.7746 8.83438 15.1576 8.98771 15.6075 8.86976C15.7488 8.83438 15.8901 8.74002 15.9719 8.64271C16.3214 8.22694 16.4106 7.7463 16.4924 7.26271C16.6969 6.08912 16.7453 4.91553 16.5779 3.739C16.5222 3.35271 16.4218 2.96938 16.3139 2.59195C16.1132 1.899 15.4848 1.56874 14.6668 1.40361C14.4958 1.36823 14.3359 1.30336 14.1723 1.25323C14.2764 1.11759 14.3619 0.964254 14.4958 0.849254C14.8936 0.504254 15.4067 0.318485 15.983 0.247716C18.0801 -0.0117712 20.1808 -0.0088225 22.2853 0.171049C22.501 0.188742 22.7203 0.221177 22.9286 0.265408C23.873 0.465921 24.1593 0.707716 24.2931 1.59233C24.3935 2.26759 24.3117 2.95759 24.3117 3.64169C24.3117 3.95425 24.3117 4.26387 24.3117 4.57643H24.2894L24.2931 4.57938Z" fill="#F1E8C5"/>
</svg>
