<svg width="354" height="81" viewBox="0 0 354 81" fill="none" xmlns="http://www.w3.org/2000/svg">
<path d="M147.738 67.7857C148.817 66.5924 149.826 66.8197 150.693 67.6152C151.857 68.6806 152.909 69.8881 154.031 71.0103C156.076 73.0417 158.15 75.0447 160.48 77.3175C161.048 76.6357 161.574 75.8828 162.199 75.2577C165.154 72.3172 168.109 69.3483 171.177 66.5214C171.646 66.081 172.782 66.3651 173.606 66.3083C173.507 66.9618 173.634 67.8425 173.265 68.2118C169.628 71.8484 165.949 75.4424 162.185 78.937C160.807 80.2154 159.315 80.0734 158.079 78.7949C154.642 75.2009 151.247 71.5501 147.709 67.7999L147.738 67.7857Z" fill="#E81E40"/>
<path d="M29.0776 68.5244C30.4556 67.1181 31.521 67.7715 32.4585 68.6949C34.9871 71.2234 37.4447 73.7946 39.9448 76.3516C40.4562 76.8772 40.996 77.3602 41.7489 78.0847C42.4024 77.3318 42.9422 76.6073 43.5814 75.9681C46.5504 73.0275 49.4909 70.0586 52.5735 67.2317C53.0422 66.8055 54.1787 67.0896 55.0026 67.047C54.8605 67.7431 54.96 68.6664 54.5338 69.0926C50.9825 72.6582 47.3743 76.1669 43.6951 79.6047C42.2461 80.9542 40.7119 80.8547 39.4476 79.5336C36.0099 75.9396 32.6148 72.2888 29.0776 68.5528V68.5244Z" fill="#E81E40"/>
<path d="M267.003 66.2231C268.424 65.1009 269.504 65.4845 270.47 66.4504C272.941 68.9506 275.385 71.465 277.814 74.0077C278.354 74.5759 278.751 75.272 279.362 76.1101C281.379 73.8373 282.914 71.9479 284.618 70.2433C286.493 68.3682 288.482 66.5925 290.57 64.9589C291.096 64.5469 292.175 64.831 292.985 64.8026C292.829 65.4987 292.687 66.1805 292.531 66.8766C292.531 66.9192 292.46 66.9618 292.417 67.0044C288.88 70.428 285.385 73.8657 281.806 77.2324C280.413 78.5393 278.709 78.5819 277.544 77.3602C274.049 73.7378 270.626 70.0444 267.018 66.2231H267.003Z" fill="#E81E40"/>
<path d="M309.17 74.4054C312.835 71.3228 316.216 68.4817 319.582 65.6406C319.838 65.4275 320.08 65.0298 320.364 65.0156C321.031 64.9587 321.727 65.0724 322.409 65.115C322.239 65.74 322.267 66.6066 321.855 66.9617C319.057 69.4477 316.159 71.82 313.332 74.2633C312.48 75.002 311.698 75.8401 310.903 76.6356C309.88 77.6442 308.715 77.6868 307.763 76.6783C304.922 73.6809 302.067 70.6978 299.283 67.6436C298.644 66.9333 297.251 66.0526 298.416 65.0014C299.652 63.8791 300.391 65.3423 301.144 66.1094C303.786 68.8226 306.428 71.5501 309.184 74.4054H309.17Z" fill="#E81E40"/>
<path d="M99.9785 77.2181C102.266 75.2294 104.411 73.3258 106.612 71.4791C108.516 69.8739 110.476 68.3113 112.422 66.7487C112.778 66.4646 113.19 66.0527 113.559 66.0669C114.227 66.0669 114.894 66.3652 115.548 66.5498C115.278 67.0612 115.136 67.7147 114.738 68.0556C110.576 71.5786 106.371 75.0447 102.195 78.5392C100.078 80.3149 98.4016 80.0308 97.1516 77.5875C95.6458 74.647 94.1116 71.7632 91.6398 69.462C91.2989 69.1494 91.2421 68.5528 91.0432 68.084C91.7251 68.0414 92.691 67.7005 93.032 68.0272C94.552 69.4478 96.0151 70.9677 97.2652 72.6156C98.3022 73.9935 99.0409 75.6129 99.9642 77.2466L99.9785 77.2181Z" fill="#E81E40"/>
<path d="M218.583 76.4084C222.29 73.269 225.828 70.2717 229.393 67.2885C230.174 66.6351 230.942 65.8538 231.851 65.4986C232.49 65.2429 233.385 65.6265 234.166 65.7117C233.839 66.2941 233.655 67.0328 233.172 67.4306C229.194 70.8115 225.16 74.1214 221.168 77.4881C218.569 79.6757 217.304 79.3632 215.585 76.4368C214.051 73.823 212.176 71.3939 210.486 68.8653C210.159 68.3824 209.989 67.7857 209.761 67.2317C210.5 67.2601 211.523 66.976 211.92 67.3596C213.398 68.7375 214.776 70.2717 215.969 71.8911C216.963 73.2406 217.674 74.8032 218.583 76.3942V76.4084Z" fill="#E81E40"/>
<path d="M189.614 76.11C193.52 72.8143 196.858 70.0016 200.182 67.2031C200.523 66.919 200.864 66.4503 201.248 66.4076C201.859 66.3508 202.498 66.5781 203.137 66.6775C202.967 67.26 202.981 68.0697 202.597 68.4106C199.841 70.8539 196.986 73.1836 194.202 75.5844C193.307 76.3515 192.483 77.218 191.631 78.0561C190.565 79.1073 189.358 79.1357 188.378 78.0987C185.735 75.3145 183.093 72.5302 180.451 69.7317C180.025 69.2771 179.513 68.851 179.258 68.297C179.016 67.7714 179.059 67.1037 178.974 66.4929C179.684 66.5923 180.636 66.4218 181.062 66.8196C182.781 68.3822 184.358 70.0869 185.934 71.7915C187.199 73.1552 188.349 74.6184 189.614 76.0958V76.11Z" fill="#E81E40"/>
<path d="M328.787 66.0952C330.094 64.8025 331.216 65.4844 332.012 66.4788C333.731 68.638 335.307 70.9109 336.913 73.1695C337.268 73.6667 337.523 74.2491 337.935 75.002C338.475 74.5475 338.93 74.1781 339.384 73.7946C343.035 70.712 346.672 67.6294 350.323 64.5752C350.749 64.2201 351.26 63.8081 351.772 63.7513C352.311 63.6945 352.894 64.0212 353.462 64.1917C353.249 64.7173 353.178 65.3991 352.809 65.7259C348.604 69.2914 344.371 72.8002 340.123 76.3089C337.935 78.1272 336.401 77.8431 335.123 75.3145C333.574 72.2746 331.941 69.2914 329.355 66.9617C329.114 66.7487 328.986 66.4219 328.787 66.1094V66.0952Z" fill="#E81E40"/>
<path d="M70.9433 76.8772C74.864 73.5815 78.188 70.7688 81.5263 67.9562C81.8673 67.672 82.2082 67.2033 82.5917 67.1606C83.2026 67.0896 83.8418 67.3027 84.4669 67.4021C84.3106 67.9846 84.339 68.7943 83.9697 69.1352C81.1712 71.6212 78.2733 73.9935 75.4464 76.4368C74.5515 77.2181 73.7417 78.0989 72.8894 78.9086C71.9092 79.8319 70.6592 79.8177 69.7358 78.8517C67.051 76.0249 64.3803 73.1838 61.6955 70.3427C61.2693 69.8881 60.758 69.4477 60.5165 68.9079C60.3034 68.4249 60.3886 67.7999 60.3318 67.2459C60.9994 67.3027 61.9086 67.0896 62.2921 67.4448C64.1104 69.1352 65.8293 70.9535 67.5055 72.8002C68.6846 74.0929 69.7642 75.4708 70.9291 76.8772H70.9433Z" fill="#E81E40"/>
<path d="M249.217 74.1213C252.626 71.4507 255.965 68.8227 259.317 66.2231C259.971 65.7117 260.709 65.2429 261.476 64.9872C261.832 64.8594 262.556 65.1577 262.769 65.4702C262.94 65.7401 262.726 66.4788 262.428 66.7629C261.377 67.7999 260.269 68.7659 259.104 69.675C256.476 71.749 253.791 73.7378 251.177 75.8402C249.515 77.1755 248.393 77.1329 246.916 75.5987C244.757 73.3542 242.54 71.1808 240.395 68.9221C239.586 68.0698 238.904 67.0754 238.265 66.0668C238.066 65.7685 238.236 65.2287 238.25 64.8025C238.719 64.8452 239.174 64.8736 239.643 64.9446C239.742 64.9446 239.827 65.0724 239.912 65.1435C242.839 67.9704 245.751 70.8115 248.677 73.6525C248.805 73.7662 248.933 73.8798 249.203 74.1213H249.217Z" fill="#E81E40"/>
<path d="M130.025 75.5133C133.335 72.9137 136.673 70.2999 140.011 67.6861C140.409 67.3736 140.779 66.8622 141.219 66.777C141.929 66.6491 142.682 66.8054 143.421 66.8338C143.194 67.4446 143.137 68.2544 142.696 68.6237C138.946 71.7205 135.139 74.7889 131.304 77.772C130.196 78.6385 128.945 78.4681 127.923 77.4311C125.465 74.9309 122.993 72.445 120.593 69.9022C119.939 69.2061 119.414 68.3822 118.945 67.5441C118.774 67.2316 118.803 66.5639 119.03 66.3508C119.243 66.1519 119.882 66.223 120.223 66.4076C120.664 66.6207 120.99 67.0611 121.374 67.402C122.624 68.5527 123.874 69.6891 125.11 70.854C126.715 72.3597 128.292 73.8797 130.039 75.5418L130.025 75.5133Z" fill="#E81E40"/>
<path d="M11.2649 76.3516C14.6742 73.6668 17.9983 71.0246 21.365 68.4534C22.0895 67.8994 22.9986 67.53 23.8794 67.2459C24.1351 67.1607 24.7175 67.5584 24.9022 67.8851C25.03 68.0982 24.8027 68.6665 24.5612 68.8937C23.4532 69.9449 22.3168 70.9819 21.1235 71.9337C18.5523 73.9793 15.8959 75.9254 13.3531 77.9852C11.5348 79.4626 10.4126 79.3916 8.83578 77.7011C6.87542 75.5987 4.80143 73.5957 2.82687 71.4933C1.97454 70.5984 1.19324 69.6182 0.511376 68.5812C0.255678 68.1977 0.369322 67.5726 0.3125 67.047C0.880718 67.1607 1.6194 67.0754 1.97454 67.4164C4.92927 70.2006 7.81298 73.0559 10.7251 75.897C10.8387 76.0107 10.9808 76.1101 11.2649 76.3232V76.3516Z" fill="#E81E40"/>
<path d="M49.2246 50.2801H60.7056L67.7956 38.6581L62.1961 29.5942L49.2246 50.2801ZM67.997 10.5398L62.035 0.690309H50.554L62.458 19.6641L67.9769 10.5196L67.997 10.5398ZM78.4105 24.4982L93.2753 0.690309H81.7943L67.2719 24.4177L83.1439 50.2801H94.6249L78.4105 24.4982ZM0.984375 50.2801H12.4654L19.5554 38.6581L13.9559 29.5942L0.984375 50.2801ZM19.7568 10.5398L13.7947 0.690309H2.33389L14.2379 19.6641L19.7568 10.5196V10.5398ZM276.911 17.1262L268.31 26.6132L244.784 0.629883H244.22V50.1995H253.566V23.6724L267.967 39.1818H268.592L276.911 30.2991V17.1061V17.1262ZM130.196 50.3607V9.69381H151.023V0.710451H120.789V50.3607H130.196ZM177.469 0.650025H159.079V9.7341H177.248C182.001 9.7341 184.982 12.7151 184.982 16.9651C184.982 21.2151 182.001 24.2767 177.248 24.2767H159.079V50.3204H168.526V33.2802H177.469C188.547 33.2802 194.711 26.0492 194.711 16.945C194.711 7.84074 188.547 0.650025 177.469 0.650025ZM219.204 0.650025H209.556L191.387 50.3405H202.103L214.39 14.8502L226.676 50.3405H237.392L219.204 0.650025ZM348.818 0.629883L325.292 26.6132L301.766 0.629883H301.202V50.1995H310.548V23.6724L324.949 39.1818H325.574L336.692 27.3181L349.442 13.6618V0.629883H348.818ZM291.836 0.629883L283.134 10.2376V50.1995H292.48V0.629883H291.856H291.836ZM340.116 33.7233V50.1995H349.462V23.7328L340.116 33.7233ZM163.833 12.2317C166.431 12.2317 168.546 14.3466 168.546 16.945C168.546 19.5433 166.431 21.6582 163.833 21.6582C161.235 21.6582 159.12 19.5433 159.12 16.945C159.12 14.3466 161.235 12.2317 163.833 12.2317ZM214.269 30.1582C216.867 30.1582 218.982 32.2731 218.982 34.8714C218.982 37.4697 216.867 39.5846 214.269 39.5846C211.67 39.5846 209.556 37.4697 209.556 34.8714C209.556 32.2731 211.67 30.1582 214.269 30.1582ZM30.1702 24.4982L45.0351 0.690309H33.5541L19.0317 24.4177L34.9036 50.2801H46.3846L30.1702 24.4982Z" fill="#F1E8C5"/>
<mask id="mask0_8791_7306" style="mask-type:luminance" maskUnits="userSpaceOnUse" x="0" y="0" width="350" height="51">
<path d="M49.2246 50.2801H60.7056L67.7956 38.6581L62.1961 29.5942L49.2246 50.2801ZM67.997 10.5398L62.035 0.690309H50.554L62.458 19.6641L67.9769 10.5196L67.997 10.5398ZM78.4105 24.4982L93.2753 0.690309H81.7943L67.2719 24.4177L83.1439 50.2801H94.6249L78.4105 24.4982ZM0.984375 50.2801H12.4654L19.5554 38.6581L13.9559 29.5942L0.984375 50.2801ZM19.7568 10.5398L13.7947 0.690309H2.33389L14.2379 19.6641L19.7568 10.5196V10.5398ZM276.911 17.1262L268.31 26.6132L244.784 0.629883H244.22V50.1995H253.566V23.6724L267.967 39.1818H268.592L276.911 30.2991V17.1061V17.1262ZM130.196 50.3607V9.69381H151.023V0.710451H120.789V50.3607H130.196ZM177.469 0.650025H159.079V9.7341H177.248C182.001 9.7341 184.982 12.7151 184.982 16.9651C184.982 21.2151 182.001 24.2767 177.248 24.2767H159.079V50.3204H168.526V33.2802H177.469C188.547 33.2802 194.711 26.0492 194.711 16.945C194.711 7.84074 188.547 0.650025 177.469 0.650025ZM219.204 0.650025H209.556L191.387 50.3405H202.103L214.39 14.8502L226.676 50.3405H237.392L219.204 0.650025ZM348.818 0.629883L325.292 26.6132L301.766 0.629883H301.202V50.1995H310.548V23.6724L324.949 39.1818H325.574L336.692 27.3181L349.442 13.6618V0.629883H348.818ZM291.836 0.629883L283.134 10.2376V50.1995H292.48V0.629883H291.856H291.836ZM340.116 33.7233V50.1995H349.462V23.7328L340.116 33.7233ZM163.833 12.2317C166.431 12.2317 168.546 14.3466 168.546 16.945C168.546 19.5433 166.431 21.6582 163.833 21.6582C161.235 21.6582 159.12 19.5433 159.12 16.945C159.12 14.3466 161.235 12.2317 163.833 12.2317ZM214.269 30.1582C216.867 30.1582 218.982 32.2731 218.982 34.8714C218.982 37.4697 216.867 39.5846 214.269 39.5846C211.67 39.5846 209.556 37.4697 209.556 34.8714C209.556 32.2731 211.67 30.1582 214.269 30.1582ZM30.1702 24.4982L45.0351 0.690309H33.5541L19.0317 24.4177L34.9036 50.2801H46.3846L30.1702 24.4982Z" fill="white"/>
</mask>
<g mask="url(#mask0_8791_7306)">
<path d="M349.462 0.629883H0.984375V50.3607H349.462V0.629883Z" fill="#F1E8C5"/>
</g>
</svg>
