<svg width="521" height="68" viewBox="0 0 521 68" fill="none" xmlns="http://www.w3.org/2000/svg">
<path d="M16.7892 39.4591L24.0563 51.3407L14.8793 66.5795L-0.00756836 66.593L16.7892 39.4591ZM17.1486 26.454L1.68941 1.57398L16.5763 1.56053L24.3025 14.4648L17.1486 26.454ZM58.8943 66.5459L44.0075 66.5593L23.3975 32.6706L42.2107 1.54034L57.0975 1.52689L37.8251 32.7513L58.8943 66.5459Z" fill="#F1E8C5"/>
<path d="M79.3593 39.412L86.6264 51.2936L77.4494 66.5324L62.5625 66.5458L79.3526 39.4053L79.3593 39.412ZM79.7187 26.4068L64.2595 1.52012L79.1463 1.50666L86.8726 14.4109L79.7187 26.4001V26.4068ZM121.464 66.4987L106.578 66.5122L85.9675 32.6235L104.781 1.48648L119.668 1.47302L100.395 32.6975L121.464 66.492V66.4987Z" fill="#F1E8C5"/>
<path d="M197.41 22.7737C197.416 34.662 189.431 44.1417 175.103 44.1552H163.523L163.543 66.4584L151.325 66.4718L151.298 32.3813L174.823 32.3611C180.979 32.3611 184.832 28.3579 184.832 22.7872C184.832 17.2164 180.966 13.3142 174.81 13.3209L151.285 13.3411V1.4461L175.07 1.42592C189.404 1.41246 197.403 10.8854 197.416 22.7737H197.41Z" fill="#F1E8C5"/>
<path d="M226.368 44.1149H217.457L217.477 66.4181L205.259 66.4315L205.232 32.341L228.757 32.3208C234.819 32.3208 238.679 28.3177 238.673 22.7469C238.673 17.1762 234.806 13.2739 228.744 13.2807L205.219 13.3008V1.40582L229.003 1.38563C243.338 1.37218 251.337 10.8451 251.35 22.7334C251.357 31.4663 247.138 38.9007 239.145 42.2513L252.947 66.3912L239.165 66.4046L226.374 44.1216L226.368 44.1149Z" fill="#F1E8C5"/>
<path d="M318.972 33.9085C318.986 52.5786 306.321 67.0841 287.854 67.0975C269.387 67.111 256.603 52.6324 256.59 33.9623C256.577 15.2923 269.334 0.793509 287.801 0.773325C306.268 0.759869 318.959 15.2384 318.979 33.9085H318.972ZM306.474 33.922C306.468 22.0337 299.474 13.1191 287.808 13.1326C276.049 13.1393 269.074 22.0673 269.081 33.9556C269.088 45.8439 276.082 54.7585 287.841 54.745C299.507 54.7383 306.488 45.8103 306.474 33.922ZM293.977 33.9354C293.977 37.3734 291.228 40.253 287.828 40.2597C284.334 40.2597 281.579 37.3869 281.572 33.9489C281.572 30.5109 284.321 27.6313 287.814 27.6246C291.215 27.6246 293.97 30.4974 293.977 33.9354Z" fill="#F1E8C5"/>
<path d="M352.593 20.8765L352.613 44.1014C352.626 60.5445 345.099 67.0505 333.886 67.0639C326.533 67.0639 321.109 63.6394 318.074 60.1072L325.235 51.3676C326.34 52.6661 328.915 55.1756 333.141 54.9805C337.367 54.7921 340.395 51.5358 340.395 45.5008L340.375 20.8832L352.593 20.8698V20.8765ZM352.58 1.27795V11.7736L340.368 11.787V1.29141L352.58 1.27795Z" fill="#F1E8C5"/>
<path d="M404.867 13.1259L362.695 13.1595V1.27122L404.86 1.23758V13.1259H404.867ZM402.052 39.6946L362.728 39.7282V27.9274L402.045 27.8938V39.6946H402.052ZM405.472 54.4625V66.2633L362.755 66.2969V54.4961L405.472 54.4625Z" fill="#F1E8C5"/>
<path d="M457.632 46.1467L468.752 51.7107C463.521 61.002 453.972 66.9563 442.119 66.9697C423.652 66.9832 410.961 52.5046 410.941 33.8345C410.921 15.1644 423.599 0.658969 442.066 0.645513C453.918 0.638785 463.481 6.66704 468.725 15.8574L457.612 21.4416C454.484 16.2409 449.153 12.998 442.079 12.998C430.413 13.0048 423.433 21.9328 423.446 33.8211C423.452 45.7094 430.447 54.6239 442.113 54.6105C449.187 54.6105 454.511 51.3474 457.632 46.1467ZM442.366 27.6717C445.859 27.6717 448.614 30.4504 448.621 33.8884C448.621 37.4205 445.873 40.2059 442.379 40.2126C438.885 40.2194 436.13 37.434 436.123 33.9018C436.117 30.3696 438.965 27.6785 442.366 27.6717Z" fill="#F1E8C5"/>
<path d="M520.987 1.1366V13.0249L474.137 13.0653V1.17696L520.987 1.1366ZM491.513 22.7132L503.731 22.6997L503.764 66.1758L491.546 66.1892L491.513 22.7132Z" fill="#F1E8C5"/>
</svg>
