<svg width="18" height="24" viewBox="0 0 18 24" fill="none" xmlns="http://www.w3.org/2000/svg">
<g clip-path="url(#clip0_8791_7304)">
<path d="M9.04178 23.8292H8.74279L8.54347 23.5918L7.91403 22.7898C7.45244 22.2041 6.99085 21.6184 6.54499 21.0169C5.05531 19.0329 3.83314 17.2126 2.8103 15.445C2.05497 14.147 1.51994 13.0547 1.12654 12.0153C0.864274 11.3293 0.696423 10.7067 0.602007 10.1158C0.539062 9.74113 0.523326 9.32956 0.554799 8.84413C0.617743 7.84688 0.832802 6.91295 1.19473 6.074C2.32248 3.48327 4.26851 1.80008 6.99085 1.07721C7.78814 0.866154 8.65362 0.787007 9.56107 0.850325C13.2695 1.08776 16.3643 3.68377 17.256 7.30341C17.4553 8.11598 17.534 8.918 17.492 9.67781C17.4606 10.1896 17.3557 10.7067 17.1511 11.3663C16.8678 12.2633 16.464 13.1972 15.8817 14.3052C15.053 15.8776 14.0196 17.5239 12.6401 19.4814C11.6487 20.8797 10.6154 22.2463 9.55582 23.539L9.37224 23.8239L9.03653 23.8345L9.04178 23.8292ZM8.96834 2.05863C8.38086 2.05863 7.8301 2.12722 7.30557 2.26969C4.92942 2.89758 3.30336 4.30639 2.32248 6.56471C2.01825 7.27175 1.83466 8.06322 1.78221 8.918C1.75598 9.31373 1.76647 9.6356 1.81368 9.93108C1.89236 10.4429 2.03923 10.9653 2.27003 11.5826C2.64245 12.5746 3.13551 13.5718 3.86462 14.8329C4.86123 16.553 6.05717 18.3364 7.52063 20.2782C7.96648 20.8691 8.41758 21.4495 8.87393 22.03L9.03129 22.2357C9.923 21.1224 10.799 19.9563 11.6382 18.7691C12.9915 16.859 13.9934 15.255 14.7959 13.7301C15.3414 12.6959 15.7191 11.8253 15.9761 10.9969C16.1492 10.4429 16.2384 10.0102 16.2646 9.60921C16.3013 8.96021 16.2332 8.30593 16.0601 7.60417C15.2995 4.5069 12.6506 2.28552 9.47714 2.08501C9.2988 2.07446 9.13095 2.06918 8.95785 2.06918L8.96834 2.05863ZM9.03129 12.2263C8.07139 12.2263 7.16919 11.857 6.49778 11.1816C5.82113 10.5062 5.44871 9.60394 5.44871 8.63835C5.44871 7.67276 5.82113 6.78104 6.49778 6.10566C7.17443 5.43027 8.06614 5.06092 9.0208 5.06092C10.9826 5.06092 12.5771 6.67551 12.5771 8.65945C12.5771 10.6434 10.9878 12.2316 9.03129 12.2316V12.2263ZM9.0208 6.28506C8.39136 6.28506 7.80388 6.52777 7.36327 6.97099C6.92266 7.41422 6.67612 8.00518 6.67612 8.63307C6.67612 9.26624 6.91741 9.86248 7.36327 10.3057C7.80388 10.7489 8.3966 10.9916 9.03129 10.9916C10.3112 10.9916 11.355 9.94163 11.355 8.6489C11.355 7.35617 10.3112 6.28506 9.0208 6.28506Z" fill="#F1E8C5"/>
</g>
<defs>
<clipPath id="clip0_8791_7304">
<rect width="16.9687" height="23" fill="white" transform="translate(0.539062 0.829102)"/>
</clipPath>
</defs>
</svg>
