<svg width="67" height="67" viewBox="0 0 67 67" fill="none" xmlns="http://www.w3.org/2000/svg">
<path d="M33.4833 66.4777C51.1931 66.4777 65.5525 51.8974 65.5525 33.9151C65.5525 15.9328 51.1844 1.36133 33.4833 1.36133C15.7821 1.36133 1.41406 15.9416 1.41406 33.9239C1.41406 51.9062 15.7734 66.4865 33.4833 66.4865" stroke="#F1E8C5" stroke-miterlimit="10"/>
<path d="M10.9453 43.5374V41.3106H16.0712V23.6552H17.4288L11.4414 27.4461V24.8393L16.7848 21.4196H18.6384V41.3017H23.4597V43.5285H10.9453V43.5374Z" fill="#F1E8C5"/>
<path d="M34.2954 43.8201C31.8065 43.8201 29.8832 43.2811 28.5169 42.2031C27.1593 41.125 26.4805 39.614 26.4805 37.6699C26.4805 36.1412 26.9417 34.8776 27.8729 33.8614C28.8041 32.8452 30.0224 32.2355 31.5454 32.0234V32.4917C30.1617 32.2001 29.0652 31.5551 28.2384 30.5654C27.4117 29.5757 27.0026 28.4004 27.0026 27.0396C27.0026 25.1751 27.6553 23.7347 28.952 22.7009C30.2487 21.667 32.0328 21.1456 34.2954 21.1456C36.5581 21.1456 38.377 21.667 39.6737 22.7009C40.9704 23.7347 41.6231 25.1839 41.6231 27.0396C41.6231 28.4004 41.2401 29.5757 40.4656 30.583C39.6911 31.5904 38.6206 32.2178 37.2369 32.4652V32.0234C38.7425 32.2355 39.9347 32.8452 40.8224 33.8614C41.7101 34.8776 42.1539 36.15 42.1539 37.6699C42.1539 39.614 41.4751 41.125 40.1175 42.2031C38.7599 43.2811 36.8192 43.8201 34.3128 43.8201H34.2954ZM34.2954 41.6905C36.1056 41.6905 37.4632 41.3459 38.3596 40.6567C39.2559 39.9674 39.6998 38.9247 39.6998 37.5197C39.6998 36.1147 39.2472 35.1073 38.3596 34.4269C37.4632 33.7465 36.1056 33.4107 34.2954 33.4107C32.4853 33.4107 31.1277 33.7554 30.2313 34.4269C29.3349 35.1073 28.8911 36.1324 28.8911 37.5197C28.8911 38.907 29.3436 39.9674 30.2487 40.6567C31.1538 41.3459 32.5027 41.6905 34.2954 41.6905ZM34.2954 31.2811C35.8619 31.2811 37.0629 30.9277 37.8983 30.2119C38.7338 29.505 39.1515 28.5153 39.1515 27.2605C39.1515 26.0057 38.7338 25.0249 37.8983 24.3268C37.0629 23.6287 35.8619 23.2752 34.2954 23.2752C32.729 23.2752 31.528 23.6287 30.7012 24.3268C29.8745 25.0249 29.4481 26.0057 29.4481 27.2605C29.4481 28.5153 29.8658 29.4961 30.7012 30.2119C31.5367 30.9277 32.7377 31.2811 34.2954 31.2811Z" fill="#F1E8C5"/>
<path d="M51.8393 42.3444V35.5049H45.1992V33.5609H51.8393V26.8805H53.8148V33.5609H60.4549V35.5049H53.8148V42.3444H51.8393Z" fill="#F1E8C5"/>
</svg>
